<svg width="256" height="256" viewBox="0 0 256 256" fill="none" xmlns="http://www.w3.org/2000/svg">
<path fill-rule="evenodd" clip-rule="evenodd" d="M110.5 153C124.031 153 135 142.031 135 128.5C135 114.969 124.031 104 110.5 104C96.969 104 86 114.969 86 128.5C86 142.031 96.969 153 110.5 153ZM110.5 160C127.897 160 142 145.897 142 128.5C142 111.103 127.897 97 110.5 97C93.103 97 79 111.103 79 128.5C79 145.897 93.103 160 110.5 160Z" fill="#441105"/>
<path d="M124.56 112H116.688V131.344C116.688 135.568 114.528 138.544 110.304 138.544C106.08 138.544 103.92 135.568 103.92 131.344V112H96V132.016C96 140.704 100.8 146.224 110.304 146.224C119.76 146.224 124.56 140.704 124.56 132.016V112Z" fill="#441105"/>
<path d="M158.632 112.4H147.928V146H158.632C169.24 146 176.776 139.664 176.776 129.2C176.776 118.736 169.24 112.4 158.632 112.4ZM159.256 119.168C164.68 119.168 168.76 122.72 168.76 129.2C168.76 135.68 164.68 139.232 159.256 139.232H155.368V119.168H159.256Z" fill="#441105"/>
</svg>
