<svg width="256" height="256" viewBox="0 0 256 256" fill="none" xmlns="http://www.w3.org/2000/svg">
<path d="M100.544 81H96.3315L91.0395 94.032H90.9675L85.6755 81H81.4635L75.0195 106.2H80.8515L84.2715 91.692H84.3435L88.9875 102.6H92.9835L97.6635 91.692H97.7355L101.156 106.2H106.952L100.544 81Z" fill="#441105"/>
<path d="M114.249 81.036H108.417V86.508H114.249V81.036ZM108.633 106.2H114.069V89.568H108.633V106.2Z" fill="#441105"/>
<path d="M122.858 81H117.422V106.2H122.858V81Z" fill="#441105"/>
<path d="M144.32 106.2L136.652 97.128L143.24 89.568H136.508L131.648 96.12V81H126.212V106.2H131.648V98.568L137.3 106.2H144.32Z" fill="#441105"/>
<path d="M89.5995 132.74C93.5235 132.74 96.4395 131.48 98.6355 129.932L95.6115 125.036C93.9915 126.116 92.0475 126.98 89.5995 126.98C85.2075 126.98 81.9315 124.172 81.9315 119.6C81.9315 115.028 85.2075 112.22 89.5995 112.22C92.0475 112.22 93.9915 113.084 95.6115 114.164L98.6355 109.268C96.4395 107.72 93.5235 106.46 89.5995 106.46C81.6435 106.46 75.7755 111.572 75.7755 119.6C75.7755 127.628 81.6435 132.74 89.5995 132.74Z" fill="#441105"/>
<path d="M111.703 115.064H111.595C108.967 115.064 107.059 116.216 106.087 118.952H106.015V115.568H100.687V132.2H106.123V126.08C106.123 121.832 107.599 120.5 111.235 120.5H111.703V115.064Z" fill="#441105"/>
<path d="M120.911 115.064C115.799 115.064 112.127 118.34 112.127 123.956C112.127 129.248 115.835 132.74 121.415 132.74C124.259 132.74 126.527 131.876 128.291 130.796L126.311 126.692C125.267 127.376 123.503 128.204 121.487 128.204C119.255 128.204 117.599 127.268 117.239 125.18H129.155V123.956C129.155 117.944 125.915 115.064 120.911 115.064ZM120.731 118.916C122.495 118.916 123.827 120.032 123.899 121.976H117.275C117.527 119.816 118.895 118.916 120.731 118.916Z" fill="#441105"/>
<path d="M138.398 132.74C141.098 132.74 142.79 131.624 143.834 129.932H143.906V132.2H149.342V115.568H143.906V117.836H143.834C142.79 116.144 141.098 115.028 138.398 115.028C134.078 115.028 130.514 118.052 130.514 123.884C130.514 129.716 134.078 132.74 138.398 132.74ZM139.91 127.772C137.75 127.772 136.094 126.26 136.094 123.884C136.094 121.508 137.75 119.996 139.91 119.996C142.106 119.996 143.762 121.508 143.762 123.884C143.762 126.26 142.106 127.772 139.91 127.772Z" fill="#441105"/>
<path d="M152.508 132.2H157.944V123.956C157.944 120.824 159.24 119.816 160.896 119.816C162.804 119.816 163.596 121.076 163.596 123.164V132.2H168.816V123.956C168.816 120.824 170.112 119.816 171.768 119.816C173.676 119.816 174.468 121.076 174.468 123.164V132.2H179.904V121.364C179.904 117.332 177.42 115.028 173.964 115.028C171.516 115.028 169.536 116.216 168.384 118.268H168.312C167.448 116.252 165.648 115.028 163.092 115.028C160.644 115.028 158.844 116.18 157.908 118.016H157.836V115.568H152.508V132.2Z" fill="#441105"/>
<path d="M87.1053 141.346L85.6263 145.953L84.0453 141.346H81.6823L80.0843 145.953L78.6223 141.346H76.0723L78.9453 149.2H81.1383L82.8553 144.61L84.5893 149.2H86.7823L89.6383 141.346H87.1053Z" fill="#441105"/>
<path d="M93.1678 137.317H90.4138V139.901H93.1678V137.317ZM90.5158 149.2H93.0828V141.346H90.5158V149.2Z" fill="#441105"/>
<path d="M99.7491 143.488V141.346H98.1341V138.201H95.5672V141.346H94.0371V143.488H95.5672V146.548C95.5672 148.435 96.6041 149.2 98.2021 149.2H99.2731V146.82H98.9841C98.3211 146.82 98.1341 146.582 98.1341 145.851V143.488H99.7491Z" fill="#441105"/>
<path d="M103.392 137.3H100.825V149.2H103.392V145.256C103.392 143.862 104.038 143.352 104.905 143.352C105.84 143.352 106.333 143.879 106.333 145.052V149.2H108.9V144.338C108.9 142.094 107.676 141.091 105.942 141.091C104.82 141.091 103.97 141.55 103.426 142.383H103.392V137.3Z" fill="#441105"/>
<path d="M125.682 137.3H123.047V144.661H123.03L117.335 137.3H115.108V149.2H117.743V141.873H117.76L123.438 149.2H125.682V137.3Z" fill="#441105"/>
<path d="M133.352 137.045C129.816 137.045 127.079 139.527 127.079 143.25C127.079 146.973 129.816 149.455 133.352 149.455C136.888 149.455 139.625 146.973 139.625 143.25C139.625 139.527 136.888 137.045 133.352 137.045ZM133.352 139.765C135.256 139.765 136.718 141.108 136.718 143.25C136.718 145.392 135.256 146.735 133.352 146.735C131.448 146.735 129.986 145.392 129.986 143.25C129.986 141.108 131.448 139.765 133.352 139.765Z" fill="#441105"/>
<path d="M150.436 141.108H150.385C149.144 141.108 148.243 141.652 147.784 142.944H147.75V141.346H145.234V149.2H147.801V146.31C147.801 144.304 148.498 143.675 150.215 143.675H150.436V141.108Z" fill="#441105"/>
<path d="M158.363 142.927V142.893C159.604 142.485 160.25 141.635 160.25 140.258C160.25 138.184 158.669 137.3 156.578 137.3H151.648V149.2H156.748C158.89 149.2 160.794 148.299 160.794 145.851C160.794 143.879 159.706 143.148 158.363 142.927ZM156.272 139.697C157.037 139.697 157.598 140.105 157.598 140.836C157.598 141.584 157.054 142.026 156.255 142.026H154.283V139.697H156.272ZM156.357 146.803H154.283V144.219H156.34C157.411 144.219 158.057 144.644 158.057 145.511C158.057 146.378 157.36 146.803 156.357 146.803Z" fill="#441105"/>
<path d="M165.98 137.045C163.464 137.045 162.189 138.286 162.189 140.224C162.189 141.567 162.835 142.706 164.382 143.624L166.201 144.763C166.864 145.171 167.323 145.494 167.323 146.038C167.323 146.667 166.813 146.99 165.861 146.99C164.773 146.99 163.651 146.599 162.512 145.902L161.322 148.265C162.665 149.047 164.161 149.455 165.759 149.455C168.53 149.455 170.094 148.214 170.094 145.919C170.094 144.253 169.261 143.301 167.833 142.434L165.861 141.193C165.181 140.785 164.96 140.547 164.96 140.19C164.96 139.782 165.215 139.493 166.048 139.493C166.83 139.493 167.646 139.731 168.734 140.241L169.839 137.912C168.428 137.3 167.119 137.045 165.98 137.045Z" fill="#441105"/>
<path d="M179.128 137.3H170.22V139.765H173.365V149.2H176V139.765H179.128V137.3Z" fill="#441105"/>
<path d="M171.328 100.076L166.756 97.3764C165.82 98.9964 164.92 100.472 164.02 101.732L158.44 94.2444C157.972 93.5964 157.684 93.0564 157.684 92.5164C157.684 91.6524 158.224 91.2924 159.232 91.2924C160.276 91.2924 161.608 91.6524 163.084 92.1204L164.488 87.4044C162.688 86.8284 160.528 86.3604 158.476 86.3604C154.048 86.3604 151.888 88.4484 151.888 91.6524C151.888 92.7684 152.176 94.0284 152.86 95.2884C149.26 96.3684 147.316 99.3564 147.316 102.992C147.316 108.932 151.456 111.74 156.856 111.74C159.484 111.74 161.644 111.02 163.552 109.724L164.632 111.2H171.04L167.296 106.16C168.7 104.396 169.996 102.344 171.328 100.076ZM156.748 106.376C154.444 106.376 152.86 105.08 152.86 102.812C152.86 101.048 154.048 99.7884 155.776 99.3564L160.276 105.368C159.196 106.016 158.044 106.376 156.748 106.376Z" fill="#441105"/>
<path d="M75.6006 155.661H78.3154V156.521H76.6162V158.903H78.1494V159.763H76.6162V163.2H75.6006V155.661Z" fill="#441105"/>
<path d="M79.2967 155.661H80.6346C81.188 155.661 81.5997 155.793 81.8699 156.057C82.2117 156.398 82.3826 156.921 82.3826 157.624C82.3826 158.164 82.2915 158.599 82.1092 158.928C81.9301 159.253 81.673 159.455 81.3377 159.533L82.7244 163.2H81.6941L80.3123 159.509V163.2H79.2967V155.661ZM80.3123 159.001C80.7062 159.001 80.9845 158.91 81.1473 158.728C81.31 158.545 81.3914 158.238 81.3914 157.805C81.3914 157.57 81.3735 157.37 81.3377 157.204C81.3051 157.038 81.2514 156.903 81.1766 156.799C81.1049 156.695 81.0105 156.618 80.8934 156.569C80.7794 156.521 80.6427 156.496 80.4832 156.496H80.3123V159.001Z" fill="#441105"/>
<path d="M87.402 159.616C87.402 160.948 87.2538 161.893 86.9576 162.453C86.6614 163.013 86.165 163.293 85.4684 163.293C84.7359 163.293 84.22 162.992 83.9205 162.39C83.6243 161.8 83.4762 160.754 83.4762 159.25C83.4762 157.909 83.6227 156.96 83.9156 156.403C84.2118 155.843 84.7132 155.563 85.4195 155.563C86.051 155.563 86.5198 155.78 86.8258 156.213C87.0276 156.503 87.1741 156.914 87.2652 157.448C87.3564 157.943 87.402 158.666 87.402 159.616ZM86.3375 159.724C86.3375 158.418 86.2789 157.552 86.1617 157.126C86.0445 156.696 85.8053 156.481 85.4439 156.481C85.0826 156.481 84.8417 156.678 84.7213 157.072C84.6041 157.469 84.5455 158.267 84.5455 159.465C84.5455 160.568 84.6074 161.333 84.7311 161.76C84.858 162.163 85.0956 162.365 85.4439 162.365C85.7857 162.365 86.0201 162.176 86.1471 161.799C86.274 161.424 86.3375 160.733 86.3375 159.724Z" fill="#441105"/>
<path d="M88.9691 155.661H89.8383L90.5023 158.737C90.5837 159.121 90.657 159.507 90.7221 159.895C90.7904 160.279 90.8523 160.682 90.9076 161.105C90.9141 161.05 90.919 161.008 90.9223 160.979C90.9255 160.946 90.9288 160.923 90.932 160.91L91.0736 160.046L91.2006 159.226L91.3129 158.684L91.9037 155.661H92.7826L93.476 163.2H92.5043L92.3334 160.642C92.3269 160.511 92.3204 160.399 92.3139 160.305C92.3106 160.21 92.309 160.132 92.309 160.07L92.265 159.06L92.2406 158.132C92.2406 158.125 92.239 158.112 92.2357 158.093C92.2357 158.07 92.2341 158.041 92.2309 158.005L92.2064 158.156C92.1804 158.335 92.156 158.492 92.1332 158.625C92.1137 158.758 92.0958 158.871 92.0795 158.962L91.9525 159.65L91.9037 159.909L91.2689 163.2H90.5854L89.9896 160.358C89.9083 159.984 89.835 159.605 89.7699 159.221C89.7081 158.833 89.6511 158.428 89.599 158.005L89.3061 163.2H88.349L88.9691 155.661Z" fill="#441105"/>
<path d="M99.7451 155.783V156.696C99.4847 156.569 99.2666 156.506 99.0908 156.506C98.8499 156.506 98.6432 156.566 98.4707 156.687C98.2982 156.804 98.1549 156.986 98.041 157.233C97.9303 157.481 97.8473 157.795 97.792 158.176C97.7399 158.553 97.7139 159.001 97.7139 159.519C97.7139 161.381 98.1908 162.312 99.1445 162.312C99.3105 162.312 99.5107 162.259 99.7451 162.155V163.088C99.501 163.225 99.2275 163.293 98.9248 163.293C97.3981 163.293 96.6348 162.046 96.6348 159.553C96.6348 158.205 96.8203 157.202 97.1914 156.545C97.5658 155.887 98.137 155.559 98.9053 155.559C99.1885 155.559 99.4684 155.633 99.7451 155.783Z" fill="#441105"/>
<path d="M104.52 159.616C104.52 160.948 104.372 161.893 104.076 162.453C103.78 163.013 103.283 163.293 102.587 163.293C101.854 163.293 101.338 162.992 101.039 162.39C100.743 161.8 100.595 160.754 100.595 159.25C100.595 157.909 100.741 156.96 101.034 156.403C101.33 155.843 101.832 155.563 102.538 155.563C103.169 155.563 103.638 155.78 103.944 156.213C104.146 156.503 104.292 156.914 104.384 157.448C104.475 157.943 104.52 158.666 104.52 159.616ZM103.456 159.724C103.456 158.418 103.397 157.552 103.28 157.126C103.163 156.696 102.924 156.481 102.562 156.481C102.201 156.481 101.96 156.678 101.84 157.072C101.722 157.469 101.664 158.267 101.664 159.465C101.664 160.568 101.726 161.333 101.849 161.76C101.976 162.163 102.214 162.365 102.562 162.365C102.904 162.365 103.138 162.176 103.265 161.799C103.392 161.424 103.456 160.733 103.456 159.724Z" fill="#441105"/>
<path d="M105.165 155.661H106.146L106.659 159.162L106.742 159.68C106.781 159.96 106.81 160.215 106.83 160.446L106.883 161.086C106.887 161.102 106.89 161.132 106.893 161.174C106.896 161.216 106.901 161.27 106.908 161.335L106.932 161.091C106.971 160.664 107.012 160.272 107.054 159.914C107.1 159.556 107.149 159.226 107.201 158.923L107.743 155.661H108.524L109.032 158.83C109.107 159.299 109.169 159.733 109.217 160.134C109.269 160.534 109.312 160.917 109.344 161.281C109.377 160.897 109.413 160.526 109.452 160.168C109.494 159.81 109.538 159.458 109.584 159.113L109.657 158.61L110.091 155.661H111.063L109.73 163.2H108.939L108.407 159.943C108.404 159.93 108.395 159.877 108.382 159.782C108.369 159.688 108.35 159.553 108.324 159.377L108.221 158.625C108.215 158.566 108.203 158.479 108.187 158.361C108.174 158.244 108.159 158.096 108.143 157.917L108.119 157.604C108.112 157.679 108.106 157.744 108.099 157.8C108.093 157.855 108.088 157.901 108.085 157.937C108.068 158.151 108.054 158.319 108.041 158.439C108.031 158.557 108.024 158.628 108.021 158.654L107.919 159.377C107.896 159.543 107.878 159.673 107.865 159.768C107.852 159.862 107.842 159.921 107.836 159.943L107.284 163.2H106.468L105.165 155.661Z" fill="#441105"/>
<path d="M114.491 155.817V156.809C114.181 156.587 113.903 156.477 113.656 156.477C113.389 156.477 113.171 156.571 113.001 156.76C112.832 156.939 112.747 157.178 112.747 157.478C112.747 157.741 112.808 157.967 112.928 158.156C112.99 158.257 113.091 158.387 113.231 158.547C113.374 158.706 113.558 158.898 113.783 159.123C114.196 159.543 114.478 159.906 114.627 160.212C114.777 160.508 114.852 160.871 114.852 161.301C114.852 161.883 114.688 162.364 114.359 162.741C114.03 163.109 113.608 163.293 113.094 163.293C112.661 163.293 112.292 163.174 111.986 162.937V161.931C112.347 162.194 112.676 162.326 112.972 162.326C113.249 162.326 113.465 162.235 113.621 162.053C113.778 161.867 113.856 161.617 113.856 161.301C113.856 161.027 113.796 160.782 113.675 160.563C113.613 160.459 113.527 160.34 113.416 160.207C113.306 160.07 113.167 159.919 113.001 159.753C112.744 159.499 112.531 159.274 112.362 159.079C112.192 158.884 112.067 158.713 111.986 158.566C111.829 158.28 111.751 157.919 111.751 157.482C111.751 156.893 111.904 156.426 112.21 156.081C112.52 155.733 112.935 155.559 113.455 155.559C113.817 155.559 114.162 155.645 114.491 155.817Z" fill="#441105"/>
<path d="M118.177 155.661H119.124L120.135 158.669C120.428 159.519 120.687 160.425 120.911 161.389C120.83 160.806 120.77 160.279 120.73 159.807C120.691 159.335 120.672 158.89 120.672 158.474V155.661H121.692V163.2H120.74L119.603 159.807C119.498 159.491 119.399 159.167 119.305 158.835C119.214 158.503 119.129 158.155 119.051 157.79C119.044 157.744 119.033 157.689 119.017 157.624C119.004 157.559 118.987 157.484 118.968 157.399C118.978 157.484 118.986 157.557 118.992 157.619C118.999 157.678 119.004 157.728 119.007 157.771L119.061 158.537L119.114 159.47C119.118 159.522 119.119 159.585 119.119 159.66C119.122 159.735 119.124 159.82 119.124 159.914L119.178 163.2H118.177V155.661Z" fill="#441105"/>
<path d="M126.839 159.616C126.839 160.948 126.691 161.893 126.394 162.453C126.098 163.013 125.602 163.293 124.905 163.293C124.173 163.293 123.657 162.992 123.357 162.39C123.061 161.8 122.913 160.754 122.913 159.25C122.913 157.909 123.059 156.96 123.352 156.403C123.649 155.843 124.15 155.563 124.856 155.563C125.488 155.563 125.957 155.78 126.263 156.213C126.464 156.503 126.611 156.914 126.702 157.448C126.793 157.943 126.839 158.666 126.839 159.616ZM125.774 159.724C125.774 158.418 125.716 157.552 125.598 157.126C125.481 156.696 125.242 156.481 124.881 156.481C124.519 156.481 124.278 156.678 124.158 157.072C124.041 157.469 123.982 158.267 123.982 159.465C123.982 160.568 124.044 161.333 124.168 161.76C124.295 162.163 124.532 162.365 124.881 162.365C125.222 162.365 125.457 162.176 125.584 161.799C125.711 161.424 125.774 160.733 125.774 159.724Z" fill="#441105"/>
<path d="M127.517 155.661H130.823V156.55H129.685V163.2H128.689V156.55H127.517V155.661Z" fill="#441105"/>
<path d="M133.259 155.661H136.565V156.55H135.427V163.2H134.431V156.55H133.259V155.661Z" fill="#441105"/>
<path d="M137.331 155.661H138.669C139.222 155.661 139.634 155.793 139.904 156.057C140.246 156.398 140.417 156.921 140.417 157.624C140.417 158.164 140.326 158.599 140.144 158.928C139.965 159.253 139.707 159.455 139.372 159.533L140.759 163.2H139.729L138.347 159.509V163.2H137.331V155.661ZM138.347 159.001C138.741 159.001 139.019 158.91 139.182 158.728C139.344 158.545 139.426 158.238 139.426 157.805C139.426 157.57 139.408 157.37 139.372 157.204C139.34 157.038 139.286 156.903 139.211 156.799C139.139 156.695 139.045 156.618 138.928 156.569C138.814 156.521 138.677 156.496 138.518 156.496H138.347V159.001Z" fill="#441105"/>
<path d="M141.75 155.661H144.45V156.521H142.765V158.908H144.26V159.768H142.765V162.341H144.45V163.2H141.75V155.661Z" fill="#441105"/>
<path d="M146.657 155.661H147.448L149.064 163.2H148.058L147.775 161.73H146.281L145.993 163.2H145.016L146.657 155.661ZM147.629 160.944L147.404 159.743C147.254 158.926 147.132 158.054 147.038 157.126C146.992 157.578 146.934 158.037 146.862 158.503C146.79 158.965 146.706 159.457 146.608 159.978L146.422 160.944H147.629Z" fill="#441105"/>
<path d="M149.098 155.661H152.404V156.55H151.266V163.2H150.27V156.55H149.098V155.661Z" fill="#441105"/>
<path d="M153.17 155.661H155.87V156.521H154.186V158.908H155.68V159.768H154.186V162.341H155.87V163.2H153.17V155.661Z" fill="#441105"/>
<path d="M157.003 155.661H158.253C158.634 155.661 158.954 155.703 159.215 155.788C159.456 155.869 159.671 156.014 159.859 156.223C160.143 156.535 160.344 156.942 160.465 157.443C160.585 157.928 160.646 158.623 160.646 159.528C160.646 160.358 160.579 161.035 160.445 161.56C160.315 162.061 160.1 162.443 159.801 162.707C159.433 163.036 158.774 163.2 157.823 163.2H157.003V155.661ZM158.019 162.312C158.637 162.312 159.05 162.124 159.259 161.75C159.474 161.376 159.581 160.648 159.581 159.567C159.581 158.405 159.479 157.606 159.273 157.17C159.068 156.734 158.692 156.516 158.146 156.516H158.019V162.312Z" fill="#441105"/>
<path d="M163.565 155.661H164.546L165.059 159.162L165.142 159.68C165.181 159.96 165.211 160.215 165.23 160.446L165.284 161.086C165.287 161.102 165.29 161.132 165.294 161.174C165.297 161.216 165.302 161.27 165.308 161.335L165.333 161.091C165.372 160.664 165.412 160.272 165.455 159.914C165.5 159.556 165.549 159.226 165.601 158.923L166.143 155.661H166.924L167.432 158.83C167.507 159.299 167.569 159.733 167.618 160.134C167.67 160.534 167.712 160.917 167.745 161.281C167.777 160.897 167.813 160.526 167.852 160.168C167.894 159.81 167.938 159.458 167.984 159.113L168.057 158.61L168.492 155.661H169.463L168.13 163.2H167.339L166.807 159.943C166.804 159.93 166.796 159.877 166.783 159.782C166.77 159.688 166.75 159.553 166.724 159.377L166.622 158.625C166.615 158.566 166.604 158.479 166.588 158.361C166.574 158.244 166.56 158.096 166.544 157.917L166.519 157.604C166.513 157.679 166.506 157.744 166.5 157.8C166.493 157.855 166.488 157.901 166.485 157.937C166.469 158.151 166.454 158.319 166.441 158.439C166.431 158.557 166.425 158.628 166.421 158.654L166.319 159.377C166.296 159.543 166.278 159.673 166.265 159.768C166.252 159.862 166.242 159.921 166.236 159.943L165.684 163.2H164.869L163.565 155.661Z" fill="#441105"/>
<path d="M170.259 155.661H171.275V163.2H170.259V155.661Z" fill="#441105"/>
<path d="M172.036 155.661H175.342V156.55H174.204V163.2H173.208V156.55H172.036V155.661Z" fill="#441105"/>
<path d="M176.108 155.661H177.124V158.61H178.613V155.661H179.629V163.2H178.613V159.47H177.124V163.2H176.108V155.661Z" fill="#441105"/>
<path d="M75 167.661H78.3057V168.55H77.168V175.2H76.1719V168.55H75V167.661Z" fill="#441105"/>
<path d="M79.0721 167.661H80.0877V170.61H81.577V167.661H82.5926V175.2H81.577V171.47H80.0877V175.2H79.0721V167.661Z" fill="#441105"/>
<path d="M83.9596 167.661H86.6598V168.521H84.9752V170.908H86.4693V171.768H84.9752V174.341H86.6598V175.2H83.9596V167.661Z" fill="#441105"/>
<path d="M91.8693 171.235H93.715V171.528C93.715 172.996 93.5865 173.988 93.3293 174.502C93.0754 175.029 92.6001 175.293 91.9035 175.293C91.1841 175.293 90.6714 175 90.3654 174.414C90.0627 173.828 89.9113 172.843 89.9113 171.46C89.9113 169.878 90.0773 168.825 90.4094 168.301C90.7219 167.809 91.202 167.563 91.8498 167.563C92.3446 167.563 92.7303 167.682 93.007 167.92C93.287 168.161 93.5051 168.556 93.6613 169.106L92.7141 169.502C92.6717 169.303 92.6245 169.137 92.5725 169.004C92.5204 168.867 92.4634 168.761 92.4016 168.687C92.2779 168.534 92.0923 168.457 91.8449 168.457C91.5064 168.457 91.2753 168.665 91.1516 169.082C91.0279 169.518 90.966 170.301 90.966 171.431C90.966 172.573 91.0295 173.346 91.1564 173.75C91.2834 174.154 91.5227 174.355 91.8742 174.355C92.1965 174.355 92.4227 174.212 92.5529 173.926C92.6864 173.62 92.7531 173.128 92.7531 172.451V172.246V172.095H91.8693V171.235Z" fill="#441105"/>
<path d="M94.9307 167.661H96.2686C96.8219 167.661 97.2337 167.793 97.5039 168.057C97.8457 168.398 98.0166 168.921 98.0166 169.624C98.0166 170.164 97.9255 170.599 97.7432 170.928C97.5641 171.253 97.307 171.455 96.9717 171.533L98.3584 175.2H97.3281L95.9463 171.509V175.2H94.9307V167.661ZM95.9463 171.001C96.3402 171.001 96.6185 170.91 96.7812 170.728C96.944 170.545 97.0254 170.238 97.0254 169.805C97.0254 169.57 97.0075 169.37 96.9717 169.204C96.9391 169.038 96.8854 168.903 96.8105 168.799C96.7389 168.695 96.6445 168.618 96.5273 168.569C96.4134 168.521 96.2767 168.496 96.1172 168.496H95.9463V171.001Z" fill="#441105"/>
<path d="M103.036 171.616C103.036 172.948 102.888 173.893 102.592 174.453C102.295 175.013 101.799 175.293 101.102 175.293C100.37 175.293 99.854 174.992 99.5545 174.39C99.2583 173.8 99.1102 172.754 99.1102 171.25C99.1102 169.909 99.2566 168.96 99.5496 168.403C99.8458 167.843 100.347 167.563 101.054 167.563C101.685 167.563 102.154 167.78 102.46 168.213C102.662 168.503 102.808 168.914 102.899 169.448C102.99 169.943 103.036 170.666 103.036 171.616ZM101.971 171.724C101.971 170.418 101.913 169.552 101.796 169.126C101.679 168.696 101.439 168.481 101.078 168.481C100.717 168.481 100.476 168.678 100.355 169.072C100.238 169.469 100.179 170.267 100.179 171.465C100.179 172.568 100.241 173.333 100.365 173.76C100.492 174.163 100.73 174.365 101.078 174.365C101.42 174.365 101.654 174.176 101.781 173.799C101.908 173.424 101.971 172.733 101.971 171.724Z" fill="#441105"/>
<path d="M103.68 167.661H104.662L105.174 171.162L105.257 171.68C105.296 171.96 105.326 172.215 105.345 172.446L105.399 173.086C105.402 173.102 105.406 173.132 105.409 173.174C105.412 173.216 105.417 173.27 105.423 173.335L105.448 173.091C105.487 172.664 105.528 172.272 105.57 171.914C105.615 171.556 105.664 171.226 105.716 170.923L106.258 167.661H107.04L107.547 170.83C107.622 171.299 107.684 171.733 107.733 172.134C107.785 172.534 107.827 172.917 107.86 173.281C107.893 172.897 107.928 172.526 107.967 172.168C108.01 171.81 108.054 171.458 108.099 171.113L108.172 170.61L108.607 167.661H109.579L108.246 175.2H107.455L106.922 171.943C106.919 171.93 106.911 171.877 106.898 171.782C106.885 171.688 106.865 171.553 106.839 171.377L106.737 170.625C106.73 170.566 106.719 170.479 106.703 170.361C106.69 170.244 106.675 170.096 106.659 169.917L106.634 169.604C106.628 169.679 106.621 169.744 106.615 169.8C106.608 169.855 106.603 169.901 106.6 169.937C106.584 170.151 106.569 170.319 106.556 170.439C106.546 170.557 106.54 170.628 106.537 170.654L106.434 171.377C106.411 171.543 106.393 171.673 106.38 171.768C106.367 171.862 106.358 171.921 106.351 171.943L105.799 175.2H104.984L103.68 167.661Z" fill="#441105"/>
<path d="M110.204 167.661H113.509V168.55H112.371V175.2H111.375V168.55H110.204V167.661Z" fill="#441105"/>
<path d="M114.276 167.661H115.291V170.61H116.78V167.661H117.796V175.2H116.78V171.47H115.291V175.2H114.276V167.661Z" fill="#441105"/>
<path d="M121.433 167.661H122.449V170.61H123.938V167.661H124.954V175.2H123.938V171.47H122.449V175.2H121.433V167.661Z" fill="#441105"/>
<path d="M130.095 171.616C130.095 172.948 129.947 173.893 129.651 174.453C129.355 175.013 128.858 175.293 128.162 175.293C127.429 175.293 126.913 174.992 126.614 174.39C126.318 173.8 126.17 172.754 126.17 171.25C126.17 169.909 126.316 168.96 126.609 168.403C126.905 167.843 127.407 167.563 128.113 167.563C128.744 167.563 129.213 167.78 129.519 168.213C129.721 168.503 129.867 168.914 129.959 169.448C130.05 169.943 130.095 170.666 130.095 171.616ZM129.031 171.724C129.031 170.418 128.972 169.552 128.855 169.126C128.738 168.696 128.499 168.481 128.137 168.481C127.776 168.481 127.535 168.678 127.415 169.072C127.297 169.469 127.239 170.267 127.239 171.465C127.239 172.568 127.301 173.333 127.424 173.76C127.551 174.163 127.789 174.365 128.137 174.365C128.479 174.365 128.713 174.176 128.84 173.799C128.967 173.424 129.031 172.733 129.031 171.724Z" fill="#441105"/>
<path d="M131.306 167.661H132.644C133.197 167.661 133.609 167.793 133.879 168.057C134.221 168.398 134.392 168.921 134.392 169.624C134.392 170.164 134.301 170.599 134.119 170.928C133.94 171.253 133.682 171.455 133.347 171.533L134.734 175.2H133.704L132.322 171.509V175.2H131.306V167.661ZM132.322 171.001C132.716 171.001 132.994 170.91 133.157 170.728C133.319 170.545 133.401 170.238 133.401 169.805C133.401 169.57 133.383 169.37 133.347 169.204C133.315 169.038 133.261 168.903 133.186 168.799C133.114 168.695 133.02 168.618 132.903 168.569C132.789 168.521 132.652 168.496 132.493 168.496H132.322V171.001Z" fill="#441105"/>
<path d="M136.081 167.661H136.95L137.614 170.737C137.696 171.121 137.769 171.507 137.834 171.895C137.903 172.279 137.964 172.682 138.02 173.105C138.026 173.05 138.031 173.008 138.034 172.979C138.038 172.946 138.041 172.923 138.044 172.91L138.186 172.046L138.313 171.226L138.425 170.684L139.016 167.661H139.895L140.588 175.2H139.616L139.446 172.642C139.439 172.511 139.432 172.399 139.426 172.305C139.423 172.21 139.421 172.132 139.421 172.07L139.377 171.06L139.353 170.132C139.353 170.125 139.351 170.112 139.348 170.093C139.348 170.07 139.346 170.041 139.343 170.005L139.319 170.156C139.293 170.335 139.268 170.492 139.245 170.625C139.226 170.758 139.208 170.871 139.192 170.962L139.065 171.65L139.016 171.909L138.381 175.2H137.697L137.102 172.358C137.02 171.984 136.947 171.605 136.882 171.221C136.82 170.833 136.763 170.428 136.711 170.005L136.418 175.2H135.461L136.081 167.661Z" fill="#441105"/>
<path d="M145.402 171.616C145.402 172.948 145.254 173.893 144.958 174.453C144.662 175.013 144.165 175.293 143.469 175.293C142.736 175.293 142.22 174.992 141.921 174.39C141.625 173.8 141.477 172.754 141.477 171.25C141.477 169.909 141.623 168.96 141.916 168.403C142.212 167.843 142.714 167.563 143.42 167.563C144.051 167.563 144.52 167.78 144.826 168.213C145.028 168.503 145.174 168.914 145.266 169.448C145.357 169.943 145.402 170.666 145.402 171.616ZM144.338 171.724C144.338 170.418 144.279 169.552 144.162 169.126C144.045 168.696 143.806 168.481 143.444 168.481C143.083 168.481 142.842 168.678 142.722 169.072C142.604 169.469 142.546 170.267 142.546 171.465C142.546 172.568 142.608 173.333 142.731 173.76C142.858 174.163 143.096 174.365 143.444 174.365C143.786 174.365 144.021 174.176 144.147 173.799C144.274 173.424 144.338 172.733 144.338 171.724Z" fill="#441105"/>
<path d="M146.613 167.661H147.56L148.571 170.669C148.864 171.519 149.123 172.425 149.347 173.389C149.266 172.806 149.206 172.279 149.167 171.807C149.128 171.335 149.108 170.89 149.108 170.474V167.661H150.129V175.2H149.177L148.039 171.807C147.935 171.491 147.835 171.167 147.741 170.835C147.65 170.503 147.565 170.155 147.487 169.79C147.481 169.744 147.469 169.689 147.453 169.624C147.44 169.559 147.424 169.484 147.404 169.399C147.414 169.484 147.422 169.557 147.429 169.619C147.435 169.678 147.44 169.728 147.443 169.771L147.497 170.537L147.551 171.47C147.554 171.522 147.555 171.585 147.555 171.66C147.559 171.735 147.56 171.82 147.56 171.914L147.614 175.2H146.613V167.661Z" fill="#441105"/>
<path d="M151.491 167.661H154.191V168.521H152.506V170.908H154.001V171.768H152.506V174.341H154.191V175.2H151.491V167.661Z" fill="#441105"/>
<path d="M157.594 167.661H158.932C159.485 167.661 159.897 167.793 160.167 168.057C160.509 168.398 160.68 168.921 160.68 169.624C160.68 170.164 160.589 170.599 160.406 170.928C160.227 171.253 159.97 171.455 159.635 171.533L161.022 175.2H159.991L158.61 171.509V175.2H157.594V167.661ZM158.61 171.001C159.003 171.001 159.282 170.91 159.445 170.728C159.607 170.545 159.689 170.238 159.689 169.805C159.689 169.57 159.671 169.37 159.635 169.204C159.602 169.038 159.549 168.903 159.474 168.799C159.402 168.695 159.308 168.618 159.191 168.569C159.077 168.521 158.94 168.496 158.78 168.496H158.61V171.001Z" fill="#441105"/>
<path d="M162.013 167.661H163.39C164.467 167.661 165.006 168.33 165.006 169.668C165.006 170.179 164.936 170.558 164.796 170.806C164.656 171.053 164.409 171.24 164.054 171.367C164.461 171.53 164.739 171.738 164.889 171.992C165.042 172.243 165.118 172.62 165.118 173.125C165.118 174.508 164.526 175.2 163.341 175.2H162.013V167.661ZM162.97 170.981C163.364 170.981 163.637 170.89 163.79 170.708C163.943 170.516 164.02 170.179 164.02 169.697C164.02 168.883 163.727 168.477 163.141 168.477H163.062H163.019C162.993 168.477 162.976 168.478 162.97 168.481V170.981ZM162.97 174.331C163.386 174.331 163.674 174.242 163.834 174.062C163.993 173.883 164.073 173.56 164.073 173.091C164.073 172.609 163.99 172.272 163.824 172.08C163.661 171.885 163.377 171.787 162.97 171.787V174.331Z" fill="#441105"/>
<path d="M168.848 167.817V168.809C168.539 168.587 168.261 168.477 168.013 168.477C167.747 168.477 167.528 168.571 167.359 168.76C167.19 168.939 167.105 169.178 167.105 169.478C167.105 169.741 167.165 169.967 167.286 170.156C167.348 170.257 167.449 170.387 167.589 170.547C167.732 170.706 167.916 170.898 168.14 171.123C168.554 171.543 168.835 171.906 168.985 172.212C169.135 172.508 169.21 172.871 169.21 173.301C169.21 173.883 169.045 174.364 168.717 174.741C168.388 175.109 167.966 175.293 167.452 175.293C167.019 175.293 166.65 175.174 166.344 174.937V173.931C166.705 174.194 167.034 174.326 167.33 174.326C167.607 174.326 167.823 174.235 167.979 174.053C168.136 173.867 168.214 173.617 168.214 173.301C168.214 173.027 168.153 172.782 168.033 172.563C167.971 172.459 167.885 172.34 167.774 172.207C167.664 172.07 167.525 171.919 167.359 171.753C167.102 171.499 166.889 171.274 166.72 171.079C166.55 170.884 166.425 170.713 166.344 170.566C166.187 170.28 166.109 169.919 166.109 169.482C166.109 168.893 166.262 168.426 166.568 168.081C166.877 167.733 167.292 167.559 167.813 167.559C168.175 167.559 168.52 167.645 168.848 167.817Z" fill="#441105"/>
<path d="M169.791 167.661H173.096V168.55H171.959V175.2H170.963V168.55H169.791V167.661Z" fill="#441105"/>
<path d="M175.137 166.904H175.572L175.537 168.271L176.827 167.817L176.958 168.228L175.65 168.618L176.48 169.707L176.128 169.961L175.357 168.833L174.58 169.961L174.229 169.707L175.059 168.618L173.75 168.228L173.882 167.817L175.171 168.271L175.137 166.904Z" fill="#441105"/>
<path d="M179.478 166.904H179.912L179.878 168.271L181.167 167.817L181.299 168.228L179.99 168.618L180.821 169.707L180.469 169.961L179.697 168.833L178.921 169.961L178.57 169.707L179.4 168.618L178.091 168.228L178.223 167.817L179.512 168.271L179.478 166.904Z" fill="#441105"/>
</svg>
