<svg width="256" height="256" viewBox="0 0 256 256" fill="none" xmlns="http://www.w3.org/2000/svg">
<path d="M23.876 115.176H17V120.396H18.368V139.476H23.876V115.176Z" fill="#441105"/>
<path d="M43.3832 111L26.3912 141.888L30.2072 143.976L47.1992 113.052L43.3832 111Z" fill="#441105"/>
<path d="M55.6122 114.636C50.1042 114.636 46.9722 117.336 46.9362 122.052H52.5163C52.5523 120.54 53.6322 119.64 55.3962 119.64C57.1242 119.64 58.0963 120.504 58.0963 122.088C58.0963 124.068 56.9082 124.932 54.2442 124.932H53.4162V129.036H54.2442C57.8082 129.036 59.1042 129.792 59.1042 131.952C59.1042 133.968 57.9883 135.012 55.7923 135.012C53.5963 135.012 52.3722 134.004 52.2282 132.06H46.5403C46.5403 137.208 49.8162 140.016 55.7562 140.016C61.4442 140.016 64.7562 137.244 64.7562 132.528C64.7562 129.144 62.9563 127.056 59.6803 126.552V126.48C62.4163 125.868 64.0002 123.852 64.0002 121.044C64.0002 116.94 61.0122 114.636 55.6122 114.636Z" fill="#441105"/>
<path d="M72.6993 132.384C72.6993 132.852 72.9513 132.996 73.7433 132.996C72.4473 136.164 70.8633 141.42 70.8633 144.156C70.8633 145.308 71.3673 145.668 71.9073 145.668C72.4833 145.668 72.7713 145.092 72.7713 144.732C72.7713 144.228 72.5193 143.976 72.5193 143.616C72.5193 141.168 74.1033 136.452 75.6873 132.888C77.1993 132.744 78.7113 132.672 80.1873 132.672C80.5113 132.672 80.8713 132.384 80.8713 131.988C80.8713 131.628 80.5113 131.376 80.0433 131.376H76.3353C77.5953 128.604 78.4593 126.984 79.3953 125.436C81.0153 122.772 82.7793 121.476 83.4993 121.476C83.7153 121.476 83.8233 121.584 83.8233 121.8C83.8233 122.16 84.0753 122.448 84.5073 122.448C85.0113 122.448 85.5513 121.908 85.5513 121.08C85.5513 120.396 84.7953 119.82 83.6433 119.82C81.9513 119.82 79.2873 122.124 77.5953 125.076C76.0833 127.776 75.4353 129.252 74.4993 131.376H73.6713C73.0233 131.376 72.6993 131.736 72.6993 132.384Z" fill="#441105"/>
<path d="M85.3654 133.932C84.0694 135.516 81.6574 138.288 78.6334 138.288C77.9494 138.288 77.6254 137.604 77.6254 137.316C77.6254 137.064 77.7694 136.812 78.2374 136.704C80.6134 136.164 83.6374 134.04 83.6374 132.168C83.6374 131.376 82.8094 130.8 82.0534 130.8C80.1814 130.8 77.6974 132.384 76.3294 135.588C75.9694 135.696 75.6454 136.128 75.6454 136.488C75.6454 136.884 75.8254 136.992 75.8254 137.208C75.8254 138.792 76.8334 139.728 78.0214 139.728C82.0174 139.728 84.9334 136.632 86.6254 134.544C87.0574 134.004 87.2374 133.752 87.2374 133.356C87.2374 132.996 86.9854 132.816 86.6614 132.816C86.2654 132.816 85.7974 133.392 85.3654 133.932ZM81.5854 132.42C81.8014 132.42 81.8734 132.564 81.8734 132.78C81.8734 133.392 79.4254 135.156 78.1294 135.408C78.8134 134.328 80.7214 132.42 81.5854 132.42Z" fill="#441105"/>
<path d="M86.4657 130.8C85.8537 130.8 85.4937 131.196 85.1697 132.492C84.6657 134.544 83.9457 137.064 83.9457 138.144C83.9457 139.404 84.9537 139.8 85.6377 139.8C86.7537 139.8 88.2297 138.468 89.5617 136.56C89.7777 137.928 90.3537 139.548 91.9017 139.548C94.3857 139.548 96.7257 135.408 96.7257 132.204C96.7257 129.684 96.2577 128.316 95.0337 128.316C94.5297 128.316 94.1337 128.676 94.1337 129.288C94.1337 129.684 94.6017 130.296 94.9617 130.656C95.2137 130.908 95.2857 131.628 95.2857 132.276C95.2857 134.796 93.7017 138 92.3337 138C91.7577 138 91.3977 136.92 91.3977 135.372C91.3977 134.328 91.7217 133.428 91.9737 132.852C92.1177 132.492 92.2257 132.204 92.2257 131.916C92.2257 131.304 91.6137 131.124 91.1817 131.124C90.7137 131.124 90.3177 131.7 89.9937 132.6C89.0937 134.94 87.0417 138 86.0337 138C85.9257 138 85.7817 137.928 85.7817 137.712C85.7817 136.992 86.3217 135.3 86.7897 134.04C87.1497 133.068 87.4737 132.204 87.4737 131.664C87.4737 131.232 86.8257 130.8 86.4657 130.8Z" fill="#441105"/>
<path d="M105.722 133.932C104.426 135.516 102.014 138.288 98.9903 138.288C98.3063 138.288 97.9823 137.604 97.9823 137.316C97.9823 137.064 98.1263 136.812 98.5943 136.704C100.97 136.164 103.994 134.04 103.994 132.168C103.994 131.376 103.166 130.8 102.41 130.8C100.538 130.8 98.0543 132.384 96.6863 135.588C96.3263 135.696 96.0023 136.128 96.0023 136.488C96.0023 136.884 96.1823 136.992 96.1823 137.208C96.1823 138.792 97.1903 139.728 98.3783 139.728C102.374 139.728 105.29 136.632 106.982 134.544C107.414 134.004 107.594 133.752 107.594 133.356C107.594 132.996 107.342 132.816 107.018 132.816C106.622 132.816 106.154 133.392 105.722 133.932ZM101.942 132.42C102.158 132.42 102.23 132.564 102.23 132.78C102.23 133.392 99.7823 135.156 98.4863 135.408C99.1703 134.328 101.078 132.42 101.942 132.42Z" fill="#441105"/>
<path d="M106.967 130.656C106.391 130.656 106.139 131.196 105.851 132.132C105.671 132.78 105.167 134.112 104.555 135.552C103.979 136.884 103.475 138.36 103.475 138.756C103.475 139.26 103.979 139.656 104.411 139.656C104.627 139.656 104.951 138.972 105.239 138.252C105.563 137.46 105.959 136.668 106.283 136.2C107.471 134.472 109.775 132.276 110.243 132.276C110.423 132.276 110.459 132.348 110.459 132.456C110.459 132.636 110.207 133.104 110.207 133.428C110.207 133.86 110.531 134.148 110.927 134.148C111.971 134.148 112.259 133.104 112.259 131.88C112.259 130.98 111.683 130.512 110.891 130.512C109.955 130.512 108.623 131.664 107.147 133.176C107.471 132.348 107.759 131.556 107.759 131.304C107.759 130.908 107.435 130.656 106.967 130.656Z" fill="#441105"/>
<path d="M130.34 140.016C134.264 140.016 137.18 138.756 139.376 137.208L136.352 132.312C134.732 133.392 132.788 134.256 130.34 134.256C125.948 134.256 122.672 131.448 122.672 126.876C122.672 122.304 125.948 119.496 130.34 119.496C132.788 119.496 134.732 120.36 136.352 121.44L139.376 116.544C137.18 114.996 134.264 113.736 130.34 113.736C122.384 113.736 116.516 118.848 116.516 126.876C116.516 134.904 122.384 140.016 130.34 140.016Z" fill="#441105"/>
<path d="M146.988 140.016C149.688 140.016 151.38 138.9 152.424 137.208H152.496V139.476H157.932V122.844H152.496V125.112H152.424C151.38 123.42 149.688 122.304 146.988 122.304C142.668 122.304 139.104 125.328 139.104 131.16C139.104 136.992 142.668 140.016 146.988 140.016ZM148.5 135.048C146.34 135.048 144.684 133.536 144.684 131.16C144.684 128.784 146.34 127.272 148.5 127.272C150.696 127.272 152.352 128.784 152.352 131.16C152.352 133.536 150.696 135.048 148.5 135.048Z" fill="#441105"/>
<path d="M165.85 114.276H160.414V139.476H165.85V114.276Z" fill="#441105"/>
<path d="M176.871 122.304C171.507 122.304 167.547 125.832 167.547 131.16C167.547 136.488 171.507 140.016 176.871 140.016C182.271 140.016 186.231 136.488 186.231 131.16C186.231 125.832 182.271 122.304 176.871 122.304ZM176.871 127.272C179.067 127.272 180.759 128.784 180.759 131.16C180.759 133.536 179.067 135.048 176.871 135.048C174.711 135.048 172.983 133.536 172.983 131.16C172.983 128.784 174.711 127.272 176.871 127.272Z" fill="#441105"/>
<path d="M198.923 122.34H198.815C196.187 122.34 194.279 123.492 193.307 126.228H193.235V122.844H187.907V139.476H193.343V133.356C193.343 129.108 194.819 127.776 198.455 127.776H198.923V122.34Z" fill="#441105"/>
<path d="M205.882 114.312H200.05V119.784H205.882V114.312ZM200.266 139.476H205.702V122.844H200.266V139.476Z" fill="#441105"/>
<path d="M216.183 122.34C211.071 122.34 207.399 125.616 207.399 131.232C207.399 136.524 211.107 140.016 216.687 140.016C219.531 140.016 221.799 139.152 223.563 138.072L221.583 133.968C220.539 134.652 218.775 135.48 216.759 135.48C214.527 135.48 212.871 134.544 212.511 132.456H224.427V131.232C224.427 125.22 221.187 122.34 216.183 122.34ZM216.003 126.192C217.767 126.192 219.099 127.308 219.171 129.252H212.547C212.799 127.092 214.167 126.192 216.003 126.192Z" fill="#441105"/>
<path d="M231.877 140.016C236.305 140.016 239.221 138.36 239.221 134.4C239.221 131.592 237.709 130.26 235.189 129.324L232.309 128.244C231.481 127.92 231.049 127.704 231.049 127.2C231.049 126.768 231.301 126.48 232.381 126.48C233.713 126.48 235.549 126.984 237.313 127.704L238.825 123.312C236.701 122.628 234.685 122.304 232.813 122.304C228.025 122.304 225.685 124.284 225.685 127.704C225.685 130.188 227.017 131.808 229.753 132.852L232.669 134.004C233.173 134.22 233.821 134.328 233.821 134.976C233.821 135.516 233.281 135.732 232.309 135.732C230.257 135.732 228.205 134.868 226.405 133.824L224.353 138.288C226.873 139.548 229.681 140.016 231.877 140.016Z" fill="#441105"/>
</svg>
