<svg width="256" height="256" viewBox="0 0 256 256" fill="none" xmlns="http://www.w3.org/2000/svg">
<path fill-rule="evenodd" clip-rule="evenodd" d="M79.6423 155C77.8723 155 76.6447 156.76 77.3592 158.38C85.9642 177.885 105.473 191.5 128.162 191.5C150.851 191.5 170.36 177.885 178.965 158.38C179.68 156.76 178.452 155 176.682 155C175.645 155 174.716 155.632 174.293 156.579C166.415 174.212 148.724 186.5 128.162 186.5C107.601 186.5 89.9096 174.212 82.0316 156.579C81.6084 155.632 80.6798 155 79.6423 155Z" fill="#441105"/>
<path fill-rule="evenodd" clip-rule="evenodd" d="M79.49 100.5C80.5275 100.5 81.4561 99.8685 81.8793 98.9212C89.7573 81.2881 107.449 69 128.01 69C148.571 69 166.262 81.2881 174.141 98.9212C174.564 99.8685 175.492 100.5 176.53 100.5C178.3 100.5 179.527 98.7398 178.813 97.1204C170.208 77.6148 150.699 64 128.01 64C105.321 64 85.8119 77.6148 77.2068 97.1204C76.4924 98.7398 77.7199 100.5 79.49 100.5Z" fill="#441105"/>
<path d="M111.876 88.176H105V93.396H106.368V112.476H111.876V88.176Z" fill="#441105"/>
<path d="M131.023 84L114.031 114.888L117.847 116.976L134.839 86.052L131.023 84Z" fill="#441105"/>
<path d="M134.72 112.476H151.64V107.652L141.956 107.724L147.212 102.72C150.38 99.732 151.568 97.572 151.568 94.8C151.568 90.336 148.472 87.636 143.288 87.636C137.744 87.636 134.468 90.66 134.468 95.844H139.976C139.976 93.756 141.056 92.64 143.144 92.64C144.944 92.64 145.916 93.576 145.916 95.196C145.916 96.6 145.124 97.896 142.892 100.092L134.72 108.192V112.476Z" fill="#441105"/>
<path d="M116.092 148.22V143H100V168.2H105.58V158.444H114.688V153.368H105.58V148.22H116.092Z" fill="#441105"/>
<path d="M133.348 168.2H139.576L129.64 143H123.736L113.8 168.2H120.064L121.864 163.088H131.548L133.348 168.2ZM123.592 158.12L126.688 149.192L129.82 158.12H123.592Z" fill="#441105"/>
<path d="M155.661 143H136.796V148.22H143.456V168.2H149.036V148.22H155.661V143Z" fill="#441105"/>
<path d="M132.332 131.652C131.612 132.624 129.02 135.792 127.688 135.792C127.364 135.792 127.112 135.504 127.112 134.928C127.112 133.704 127.652 132.444 127.652 131.292C127.652 130.356 127.256 129.78 126.068 129.78C124.7 129.78 122.468 131.184 120.812 132.948C121.064 132.228 122.216 128.988 122.468 128.52C123.872 127.98 126.32 127.044 128.3 124.956C131 122.112 131.36 119.664 131.36 118.548C131.36 117.576 130.496 117 129.776 117C128.084 117 125.636 119.196 123.368 122.832C122.54 124.164 121.748 125.604 121.064 127.044C120.632 127.116 120.2 127.116 119.696 127.116C118.976 127.116 118.724 127.08 118.436 127.008C119.3 125.388 120.956 123.048 121.568 122.544C122.288 122.004 122.36 121.716 122.36 121.284C122.36 120.852 121.928 120.492 121.424 120.492C120.992 120.492 120.488 120.996 119.84 121.86C118.868 123.084 117.716 124.74 116.78 126.684C116.168 126.684 115.7 126.072 115.052 126.072C114.476 126.072 114.116 126.54 114.116 127.008C114.116 127.944 115.484 128.268 115.952 128.268C114.296 131.472 113 135.072 113 137.16C113 138.06 113.432 138.672 113.972 138.672C114.584 138.672 114.872 138.312 114.872 137.88C114.872 137.556 114.62 137.376 114.62 136.908C114.62 135.036 116.06 131.112 117.536 128.628C118.004 128.7 118.58 128.736 119.192 128.736C119.588 128.736 119.948 128.736 120.308 128.7C118.76 132.336 117.824 135.648 117.824 136.656C117.824 137.412 118.22 137.916 118.724 137.916C119.192 137.916 119.66 137.556 119.912 136.764C120.488 134.964 123.728 131.58 125.204 131.58C125.528 131.58 125.672 131.76 125.672 132.012C125.672 133.02 125.132 134.172 125.132 135.18C125.132 136.404 125.6 137.412 127.148 137.412C129.164 137.412 131.9 134.352 133.592 132.264C134.024 131.724 134.204 131.472 134.204 131.076C134.204 130.716 133.952 130.536 133.628 130.536C133.232 130.536 132.764 131.112 132.332 131.652ZM129.38 118.692C129.668 118.692 129.848 118.872 129.848 119.124C129.848 119.7 129.452 121.32 127.04 123.912C125.492 125.568 123.188 126.54 123.188 126.54C123.188 126.54 124.088 124.776 124.952 123.48C126.788 120.708 128.516 118.692 129.38 118.692Z" fill="#441105"/>
<path d="M140.492 131.652C139.196 133.236 136.784 136.008 133.76 136.008C133.076 136.008 132.752 135.324 132.752 135.036C132.752 134.784 132.896 134.532 133.364 134.424C135.74 133.884 138.764 131.76 138.764 129.888C138.764 129.096 137.936 128.52 137.18 128.52C135.308 128.52 132.824 130.104 131.456 133.308C131.096 133.416 130.772 133.848 130.772 134.208C130.772 134.604 130.952 134.712 130.952 134.928C130.952 136.512 131.96 137.448 133.148 137.448C137.144 137.448 140.06 134.352 141.752 132.264C142.184 131.724 142.364 131.472 142.364 131.076C142.364 130.716 142.112 130.536 141.788 130.536C141.392 130.536 140.924 131.112 140.492 131.652ZM136.712 130.14C136.928 130.14 137 130.284 137 130.5C137 131.112 134.552 132.876 133.256 133.128C133.94 132.048 135.848 130.14 136.712 130.14Z" fill="#441105"/>
</svg>
