<svg width="256" height="256" viewBox="0 0 256 256" fill="none" xmlns="http://www.w3.org/2000/svg">
<path d="M88.3038 146.01V143.4H80.2578V156H83.0478V151.122H87.6018V148.584H83.0478V146.01H88.3038Z" fill="#441105"/>
<path d="M95.9115 143.4H93.1215V156H100.933V153.372H95.9115V143.4Z" fill="#441105"/>
<path d="M114.591 156H117.705L112.737 143.4H109.785L104.817 156H107.949L108.849 153.444H113.691L114.591 156ZM109.713 150.96L111.261 146.496L112.827 150.96H109.713Z" fill="#441105"/>
<path d="M132.072 143.4H128.742L125.826 152.4H125.79L122.874 143.4H119.544L124.314 156H127.302L132.072 143.4Z" fill="#441105"/>
<path d="M141.888 143.13C138.144 143.13 135.246 145.758 135.246 149.7C135.246 153.642 138.144 156.27 141.888 156.27C145.632 156.27 148.53 153.642 148.53 149.7C148.53 145.758 145.632 143.13 141.888 143.13ZM141.888 146.01C143.904 146.01 145.452 147.432 145.452 149.7C145.452 151.968 143.904 153.39 141.888 153.39C139.872 153.39 138.324 151.968 138.324 149.7C138.324 147.432 139.872 146.01 141.888 146.01Z" fill="#441105"/>
<path d="M160.109 156H163.601L160.001 151.086C161.945 150.636 162.935 149.196 162.935 147.342C162.935 145.146 161.477 143.4 158.651 143.4H153.611V156H156.401V151.23H156.941L160.109 156ZM156.401 145.938H158.237C159.353 145.938 159.983 146.478 159.983 147.414C159.983 148.458 159.353 148.89 158.237 148.89H156.401V145.938Z" fill="#441105"/>
<path d="M172.087 143.13C169.423 143.13 168.073 144.444 168.073 146.496C168.073 147.918 168.757 149.124 170.395 150.096L172.321 151.302C173.023 151.734 173.509 152.076 173.509 152.652C173.509 153.318 172.969 153.66 171.961 153.66C170.809 153.66 169.621 153.246 168.415 152.508L167.155 155.01C168.577 155.838 170.161 156.27 171.853 156.27C174.787 156.27 176.443 154.956 176.443 152.526C176.443 150.762 175.561 149.754 174.049 148.836L171.961 147.522C171.241 147.09 171.007 146.838 171.007 146.46C171.007 146.028 171.277 145.722 172.159 145.722C172.987 145.722 173.851 145.974 175.003 146.514L176.173 144.048C174.679 143.4 173.293 143.13 172.087 143.13Z" fill="#441105"/>
<path d="M62.76 105.2H59.04V115.592H59.016L50.976 105.2H47.832V122H51.552V111.656H51.576L59.592 122H62.76V105.2Z" fill="#441105"/>
<path d="M73.5874 104.84C68.5954 104.84 64.7314 108.344 64.7314 113.6C64.7314 118.856 68.5954 122.36 73.5874 122.36C78.5794 122.36 82.4434 118.856 82.4434 113.6C82.4434 108.344 78.5794 104.84 73.5874 104.84ZM73.5874 108.68C76.2754 108.68 78.3394 110.576 78.3394 113.6C78.3394 116.624 76.2754 118.52 73.5874 118.52C70.8994 118.52 68.8354 116.624 68.8354 113.6C68.8354 110.576 70.8994 108.68 73.5874 108.68Z" fill="#441105"/>
<path d="M101.588 122H105.74L99.1155 105.2H95.1795L88.5555 122H92.7315L93.9315 118.592H100.388L101.588 122ZM95.0835 115.28L97.1475 109.328L99.2355 115.28H95.0835Z" fill="#441105"/>
<path d="M115.652 122H120.308L115.508 115.448C118.1 114.848 119.42 112.928 119.42 110.456C119.42 107.528 117.476 105.2 113.708 105.2H106.988V122H110.708V115.64H111.428L115.652 122ZM110.708 108.584H113.156C114.644 108.584 115.484 109.304 115.484 110.552C115.484 111.944 114.644 112.52 113.156 112.52H110.708V108.584Z" fill="#441105"/>
<path d="M132.517 105.2H119.941V108.68H124.381V122H128.101V108.68H132.517V105.2Z" fill="#441105"/>
<path d="M137.825 105.2H134.105V122H137.825V105.2Z" fill="#441105"/>
<path d="M151.49 108.68V105.2H140.762V122H144.482V115.496H150.554V112.112H144.482V108.68H151.49Z" fill="#441105"/>
<path d="M156.833 105.2H153.113V122H156.833V105.2Z" fill="#441105"/>
<path d="M168.026 122.36C170.642 122.36 172.586 121.52 174.05 120.488L172.034 117.224C170.954 117.944 169.658 118.52 168.026 118.52C165.098 118.52 162.914 116.648 162.914 113.6C162.914 110.552 165.098 108.68 168.026 108.68C169.658 108.68 170.954 109.256 172.034 109.976L174.05 106.712C172.586 105.68 170.642 104.84 168.026 104.84C162.722 104.84 158.81 108.248 158.81 113.6C158.81 118.952 162.722 122.36 168.026 122.36Z" fill="#441105"/>
<path d="M179.497 105.2H175.777V122H179.497V105.2Z" fill="#441105"/>
<path d="M193.791 122H197.943L191.319 105.2H187.383L180.759 122H184.935L186.135 118.592H192.591L193.791 122ZM187.287 115.28L189.351 109.328L191.439 115.28H187.287Z" fill="#441105"/>
<path d="M202.911 105.2H199.191V122H209.607V118.496H202.911V105.2Z" fill="#441105"/>
<path fill-rule="evenodd" clip-rule="evenodd" d="M211 135L45 135L45 132.5L211 132.5L211 135Z" fill="#441105"/>
<path fill-rule="evenodd" clip-rule="evenodd" d="M215 92H42C39.2386 92 37 94.2386 37 97V160C37 162.761 39.2386 165 42 165H215C217.761 165 220 162.761 220 160V97C220 94.2386 217.761 92 215 92ZM42 87C36.4772 87 32 91.4772 32 97V160C32 165.523 36.4772 170 42 170H215C220.523 170 225 165.523 225 160V97C225 91.4772 220.523 87 215 87H42Z" fill="#441105"/>
</svg>
