<svg width="256" height="256" viewBox="0 0 256 256" fill="none" xmlns="http://www.w3.org/2000/svg">
<path d="M45.6806 177H46.2073L46.1659 178.778L47.7282 178.188L47.8879 178.721L46.302 179.229L47.308 180.645L46.8819 180.975L45.9469 179.508L45.006 180.975L44.5799 180.645L45.5859 179.229L44 178.721L44.1598 178.188L45.7221 178.778L45.6806 177Z" fill="#441105"/>
<path d="M50.5774 177.984H51.5361L53.4948 187.789H52.2758L51.9326 185.878H50.1217L49.7726 187.789H48.5891L50.5774 177.984ZM51.755 184.855L51.4828 183.293C51.3013 182.231 51.1534 181.096 51.039 179.889C50.9838 180.478 50.9127 181.075 50.826 181.68C50.7392 182.281 50.6366 182.921 50.5182 183.598L50.2934 184.855H51.755Z" fill="#441105"/>
<path d="M54.3439 177.984H55.8588C56.3204 177.984 56.709 178.039 57.0246 178.149C57.3166 178.255 57.5769 178.444 57.8058 178.715C58.149 179.121 58.3936 179.65 58.5396 180.302C58.6855 180.933 58.7585 181.837 58.7585 183.014C58.7585 184.093 58.6776 184.974 58.5159 185.656C58.3581 186.308 58.0977 186.805 57.7348 187.148C57.289 187.576 56.4901 187.789 55.3381 187.789H54.3439V177.984ZM55.5748 186.634C56.3244 186.634 56.8254 186.39 57.0779 185.903C57.3383 185.416 57.4685 184.47 57.4685 183.065C57.4685 181.553 57.3442 180.514 57.0956 179.947C56.8471 179.379 56.3914 179.096 55.7287 179.096H55.5748V186.634Z" fill="#441105"/>
<path d="M60.1106 177.984H61.6255C62.0871 177.984 62.4757 178.039 62.7913 178.149C63.0833 178.255 63.3436 178.444 63.5725 178.715C63.9157 179.121 64.1603 179.65 64.3062 180.302C64.4522 180.933 64.5252 181.837 64.5252 183.014C64.5252 184.093 64.4443 184.974 64.2826 185.656C64.1248 186.308 63.8644 186.805 63.5014 187.148C63.0556 187.576 62.2567 187.789 61.1048 187.789H60.1106V177.984ZM61.3415 186.634C62.0911 186.634 62.5921 186.39 62.8446 185.903C63.105 185.416 63.2351 184.47 63.2351 183.065C63.2351 181.553 63.1109 180.514 62.8623 179.947C62.6138 179.379 62.1581 179.096 61.4953 179.096H61.3415V186.634Z" fill="#441105"/>
<path d="M65.8773 177.984H69.1498V179.102H67.1082V182.207H68.919V183.325H67.1082V186.672H69.1498V187.789H65.8773V177.984Z" fill="#441105"/>
<path d="M70.4012 177.984H71.9162C72.3778 177.984 72.7663 178.039 73.082 178.149C73.3739 178.255 73.6343 178.444 73.8631 178.715C74.2063 179.121 74.4509 179.65 74.5969 180.302C74.7429 180.933 74.8158 181.837 74.8158 183.014C74.8158 184.093 74.735 184.974 74.5732 185.656C74.4154 186.308 74.155 186.805 73.7921 187.148C73.3463 187.576 72.5474 187.789 71.3954 187.789H70.4012V177.984ZM71.6321 186.634C72.3817 186.634 72.8827 186.39 73.1352 185.903C73.3956 185.416 73.5258 184.47 73.5258 183.065C73.5258 181.553 73.4015 180.514 73.153 179.947C72.9044 179.379 72.4488 179.096 71.786 179.096H71.6321V186.634Z" fill="#441105"/>
<path d="M78.7982 177.984H82.0885V179.102H80.0291V182.201H81.8873V183.319H80.0291V187.789H78.7982V177.984Z" fill="#441105"/>
<path d="M83.1565 177.984H84.3874V186.672H86.3994V187.789H83.1565V177.984Z" fill="#441105"/>
<path d="M89.077 177.984H90.0357L91.9945 187.789H90.7754L90.4322 185.878H88.6214L88.2722 187.789H87.0887L89.077 177.984ZM90.2547 184.855L89.9824 183.293C89.801 182.231 89.653 181.096 89.5386 179.889C89.4834 180.478 89.4124 181.075 89.3256 181.68C89.2388 182.281 89.1362 182.921 89.0179 183.598L88.793 184.855H90.2547Z" fill="#441105"/>
<path d="M91.9026 177.984H93.1158L93.6661 181.604L93.7608 182.258L93.9561 183.681C93.9876 183.922 94.0152 184.142 94.0389 184.341C94.0665 184.54 94.0902 184.72 94.1099 184.881L94.1691 185.363C94.1809 185.266 94.1908 185.179 94.1987 185.103C94.2066 185.027 94.2145 184.963 94.2224 184.913L94.3821 183.776L94.5893 182.284C94.609 182.148 94.6267 182.023 94.6425 181.909C94.6622 181.795 94.68 181.693 94.6958 181.604L95.2875 177.984H96.4356L94.6425 187.789H93.6661L91.9026 177.984Z" fill="#441105"/>
<path d="M101.824 183.128C101.824 184.86 101.644 186.09 101.285 186.818C100.926 187.546 100.324 187.91 99.4801 187.91C98.5925 187.91 97.9672 187.518 97.6042 186.735C97.2452 185.969 97.0657 184.608 97.0657 182.652C97.0657 180.908 97.2432 179.674 97.5983 178.95C97.9573 178.221 98.5649 177.857 99.4209 177.857C100.186 177.857 100.754 178.139 101.125 178.702C101.37 179.079 101.547 179.614 101.658 180.309C101.768 180.952 101.824 181.892 101.824 183.128ZM100.533 183.268C100.533 181.57 100.462 180.444 100.32 179.889C100.178 179.331 99.8884 179.051 99.4505 179.051C99.0126 179.051 98.7207 179.307 98.5747 179.82C98.4327 180.336 98.3617 181.373 98.3617 182.931C98.3617 184.366 98.4366 185.361 98.5865 185.916C98.7404 186.441 99.0284 186.703 99.4505 186.703C99.8648 186.703 100.149 186.458 100.303 185.967C100.457 185.48 100.533 184.58 100.533 183.268Z" fill="#441105"/>
<path d="M103.17 177.984H104.791C105.462 177.984 105.961 178.156 106.288 178.499C106.703 178.943 106.91 179.623 106.91 180.537C106.91 181.24 106.799 181.805 106.578 182.233C106.361 182.656 106.05 182.919 105.643 183.02L107.324 187.789H106.075L104.401 182.988V187.789H103.17V177.984ZM104.401 182.328C104.878 182.328 105.215 182.209 105.413 181.972C105.61 181.735 105.708 181.335 105.708 180.772C105.708 180.467 105.687 180.207 105.643 179.991C105.604 179.775 105.539 179.599 105.448 179.464C105.361 179.328 105.247 179.229 105.105 179.165C104.967 179.102 104.801 179.07 104.608 179.07H104.401V182.328Z" fill="#441105"/>
<path d="M111.451 178.188V179.477C111.077 179.189 110.739 179.045 110.439 179.045C110.116 179.045 109.852 179.168 109.647 179.413C109.441 179.646 109.339 179.957 109.339 180.347C109.339 180.69 109.412 180.984 109.558 181.229C109.633 181.361 109.755 181.53 109.925 181.737C110.098 181.945 110.321 182.195 110.593 182.487C111.094 183.033 111.436 183.505 111.617 183.903C111.799 184.288 111.889 184.76 111.889 185.319C111.889 186.077 111.69 186.701 111.292 187.192C110.893 187.671 110.382 187.91 109.759 187.91C109.234 187.91 108.786 187.755 108.416 187.446V186.138C108.854 186.481 109.252 186.653 109.611 186.653C109.946 186.653 110.209 186.534 110.398 186.297C110.587 186.056 110.682 185.73 110.682 185.319C110.682 184.963 110.609 184.644 110.463 184.36C110.388 184.225 110.284 184.07 110.15 183.897C110.015 183.719 109.848 183.522 109.647 183.306C109.335 182.976 109.076 182.684 108.871 182.43C108.666 182.176 108.514 181.953 108.416 181.763C108.226 181.39 108.132 180.92 108.132 180.353C108.132 179.587 108.317 178.979 108.688 178.53C109.063 178.077 109.566 177.851 110.197 177.851C110.635 177.851 111.053 177.963 111.451 178.188Z" fill="#441105"/>
<path d="M115.676 177.984H118.967V179.102H116.907V182.201H118.765V183.319H116.907V187.789H115.676V177.984Z" fill="#441105"/>
<path d="M120.035 177.984H121.656C122.327 177.984 122.826 178.156 123.153 178.499C123.568 178.943 123.775 179.623 123.775 180.537C123.775 181.24 123.664 181.805 123.443 182.233C123.226 182.656 122.915 182.919 122.508 183.02L124.189 187.789H122.94L121.266 182.988V187.789H120.035V177.984ZM121.266 182.328C121.743 182.328 122.08 182.209 122.277 181.972C122.475 181.735 122.573 181.335 122.573 180.772C122.573 180.467 122.552 180.207 122.508 179.991C122.469 179.775 122.404 179.599 122.313 179.464C122.226 179.328 122.112 179.229 121.97 179.165C121.832 179.102 121.666 179.07 121.473 179.07H121.266V182.328Z" fill="#441105"/>
<path d="M129.737 183.128C129.737 184.86 129.557 186.09 129.198 186.818C128.839 187.546 128.237 187.91 127.393 187.91C126.506 187.91 125.88 187.518 125.517 186.735C125.158 185.969 124.979 184.608 124.979 182.652C124.979 180.908 125.156 179.674 125.511 178.95C125.87 178.221 126.478 177.857 127.334 177.857C128.099 177.857 128.668 178.139 129.038 178.702C129.283 179.079 129.46 179.614 129.571 180.309C129.681 180.952 129.737 181.892 129.737 183.128ZM128.447 183.268C128.447 181.57 128.376 180.444 128.234 179.889C128.092 179.331 127.802 179.051 127.364 179.051C126.926 179.051 126.634 179.307 126.488 179.82C126.346 180.336 126.275 181.373 126.275 182.931C126.275 184.366 126.35 185.361 126.5 185.916C126.654 186.441 126.942 186.703 127.364 186.703C127.778 186.703 128.062 186.458 128.216 185.967C128.37 185.48 128.447 184.58 128.447 183.268Z" fill="#441105"/>
<path d="M131.515 177.984H132.568L133.373 181.985C133.472 182.485 133.56 182.986 133.639 183.49C133.722 183.99 133.797 184.515 133.864 185.065C133.872 184.993 133.878 184.938 133.882 184.9C133.886 184.858 133.89 184.828 133.894 184.811L134.065 183.687L134.219 182.62L134.355 181.915L135.071 177.984H136.137L136.977 187.789H135.799L135.592 184.462C135.584 184.292 135.576 184.146 135.568 184.024C135.564 183.901 135.562 183.799 135.562 183.719L135.509 182.404L135.48 181.198C135.48 181.189 135.478 181.172 135.474 181.147C135.474 181.117 135.472 181.079 135.468 181.033L135.438 181.229C135.407 181.462 135.377 181.665 135.349 181.839C135.326 182.013 135.304 182.159 135.284 182.277L135.131 183.173L135.071 183.509L134.302 187.789H133.474L132.752 184.093C132.653 183.607 132.564 183.113 132.485 182.614C132.41 182.11 132.341 181.583 132.278 181.033L131.923 187.789H130.763L131.515 177.984Z" fill="#441105"/>
<path d="M140.746 177.984H141.894L143.119 181.896C143.474 183.001 143.788 184.18 144.06 185.433C143.961 184.676 143.888 183.99 143.841 183.376C143.794 182.762 143.77 182.184 143.77 181.642V177.984H145.007V187.789H143.853L142.474 183.376C142.348 182.965 142.228 182.544 142.113 182.112C142.003 181.68 141.9 181.227 141.805 180.753C141.798 180.694 141.784 180.622 141.764 180.537C141.748 180.453 141.728 180.355 141.705 180.245C141.717 180.355 141.727 180.45 141.734 180.531C141.742 180.607 141.748 180.673 141.752 180.728L141.817 181.725L141.882 182.938C141.886 183.005 141.888 183.088 141.888 183.185C141.892 183.283 141.894 183.393 141.894 183.516L141.959 187.789H140.746V177.984Z" fill="#441105"/>
<path d="M148.016 177.984H148.975L150.933 187.789H149.714L149.371 185.878H147.56L147.211 187.789H146.028L148.016 177.984ZM149.194 184.855L148.921 183.293C148.74 182.231 148.592 181.096 148.478 179.889C148.422 180.478 148.351 181.075 148.264 181.68C148.178 182.281 148.075 182.921 147.957 183.598L147.732 184.855H149.194Z" fill="#441105"/>
<path d="M150.853 177.984H154.86V179.14H153.481V187.789H152.274V179.14H150.853V177.984Z" fill="#441105"/>
<path d="M155.667 177.984H156.875V184.913C156.875 185.62 156.934 186.09 157.052 186.322C157.174 186.555 157.415 186.672 157.774 186.672C158.133 186.672 158.37 186.57 158.484 186.367C158.602 186.159 158.662 185.738 158.662 185.103V177.984H159.869V185.103C159.869 186.17 159.717 186.892 159.413 187.269C159.05 187.696 158.496 187.91 157.75 187.91C156.93 187.91 156.352 187.635 156.016 187.084C155.784 186.708 155.667 185.984 155.667 184.913V177.984Z" fill="#441105"/>
<path d="M161.398 177.984H163.02C163.691 177.984 164.19 178.156 164.517 178.499C164.931 178.943 165.138 179.623 165.138 180.537C165.138 181.24 165.028 181.805 164.807 182.233C164.59 182.656 164.278 182.919 163.872 183.02L165.553 187.789H164.304L162.629 182.988V187.789H161.398V177.984ZM162.629 182.328C163.107 182.328 163.444 182.209 163.641 181.972C163.839 181.735 163.937 181.335 163.937 180.772C163.937 180.467 163.915 180.207 163.872 179.991C163.833 179.775 163.768 179.599 163.677 179.464C163.59 179.328 163.476 179.229 163.334 179.165C163.195 179.102 163.03 179.07 162.836 179.07H162.629V182.328Z" fill="#441105"/>
<path d="M167.934 177.984H168.893L170.852 187.789H169.633L169.29 185.878H167.479L167.13 187.789H165.946L167.934 177.984ZM169.112 184.855L168.84 183.293C168.658 182.231 168.51 181.096 168.396 179.889C168.341 180.478 168.27 181.075 168.183 181.68C168.096 182.281 167.994 182.921 167.875 183.598L167.65 184.855H169.112Z" fill="#441105"/>
<path d="M171.701 177.984H172.932V186.672H174.944V187.789H171.701V177.984Z" fill="#441105"/>
<path d="M181.512 178.188V179.477C181.137 179.189 180.8 179.045 180.5 179.045C180.177 179.045 179.913 179.168 179.707 179.413C179.502 179.646 179.4 179.957 179.4 180.347C179.4 180.69 179.473 180.984 179.619 181.229C179.694 181.361 179.816 181.53 179.985 181.737C180.159 181.945 180.382 182.195 180.654 182.487C181.155 183.033 181.496 183.505 181.678 183.903C181.859 184.288 181.95 184.76 181.95 185.319C181.95 186.077 181.751 186.701 181.352 187.192C180.954 187.671 180.443 187.91 179.82 187.91C179.295 187.91 178.847 187.755 178.476 187.446V186.138C178.914 186.481 179.313 186.653 179.672 186.653C180.007 186.653 180.27 186.534 180.459 186.297C180.648 186.056 180.743 185.73 180.743 185.319C180.743 184.963 180.67 184.644 180.524 184.36C180.449 184.225 180.345 184.07 180.21 183.897C180.076 183.719 179.909 183.522 179.707 183.306C179.396 182.976 179.137 182.684 178.932 182.43C178.727 182.176 178.575 181.953 178.476 181.763C178.287 181.39 178.192 180.92 178.192 180.353C178.192 179.587 178.378 178.979 178.749 178.53C179.123 178.077 179.626 177.851 180.258 177.851C180.696 177.851 181.114 177.963 181.512 178.188Z" fill="#441105"/>
<path d="M187.681 183.128C187.681 184.86 187.502 186.09 187.143 186.818C186.784 187.546 186.182 187.91 185.338 187.91C184.45 187.91 183.825 187.518 183.462 186.735C183.103 185.969 182.924 184.608 182.924 182.652C182.924 180.908 183.101 179.674 183.456 178.95C183.815 178.221 184.423 177.857 185.279 177.857C186.044 177.857 186.612 178.139 186.983 178.702C187.228 179.079 187.405 179.614 187.516 180.309C187.626 180.952 187.681 181.892 187.681 183.128ZM186.391 183.268C186.391 181.57 186.32 180.444 186.178 179.889C186.036 179.331 185.746 179.051 185.308 179.051C184.87 179.051 184.579 179.307 184.433 179.82C184.291 180.336 184.22 181.373 184.22 182.931C184.22 184.366 184.294 185.361 184.444 185.916C184.598 186.441 184.886 186.703 185.308 186.703C185.723 186.703 186.007 186.458 186.161 185.967C186.314 185.48 186.391 184.58 186.391 183.268Z" fill="#441105"/>
<path d="M189.028 177.984H190.235V184.913C190.235 185.62 190.294 186.09 190.412 186.322C190.535 186.555 190.775 186.672 191.134 186.672C191.493 186.672 191.73 186.57 191.844 186.367C191.963 186.159 192.022 185.738 192.022 185.103V177.984H193.229V185.103C193.229 186.17 193.077 186.892 192.773 187.269C192.41 187.696 191.856 187.91 191.111 187.91C190.29 187.91 189.712 187.635 189.377 187.084C189.144 186.708 189.028 185.984 189.028 184.913V177.984Z" fill="#441105"/>
<path d="M194.759 177.984H196.38C197.051 177.984 197.55 178.156 197.877 178.499C198.292 178.943 198.499 179.623 198.499 180.537C198.499 181.24 198.388 181.805 198.167 182.233C197.95 182.656 197.639 182.919 197.232 183.02L198.913 187.789H197.664L195.99 182.988V187.789H194.759V177.984ZM195.99 182.328C196.467 182.328 196.804 182.209 197.002 181.972C197.199 181.735 197.297 181.335 197.297 180.772C197.297 180.467 197.276 180.207 197.232 179.991C197.193 179.775 197.128 179.599 197.037 179.464C196.95 179.328 196.836 179.229 196.694 179.165C196.556 179.102 196.39 179.07 196.197 179.07H195.99V182.328Z" fill="#441105"/>
<path d="M203.437 178.143V179.331C203.121 179.165 202.857 179.083 202.644 179.083C202.352 179.083 202.101 179.161 201.892 179.318C201.683 179.47 201.51 179.707 201.372 180.029C201.237 180.351 201.137 180.759 201.07 181.255C201.007 181.746 200.975 182.328 200.975 183.001C200.975 185.423 201.553 186.634 202.709 186.634C202.91 186.634 203.153 186.566 203.437 186.43V187.643C203.141 187.821 202.81 187.91 202.443 187.91C200.592 187.91 199.667 186.289 199.667 183.046C199.667 181.293 199.892 179.989 200.342 179.134C200.796 178.279 201.488 177.851 202.419 177.851C202.762 177.851 203.102 177.948 203.437 178.143Z" fill="#441105"/>
<path d="M204.6 177.984H207.872V179.102H205.83V182.207H207.641V183.325H205.83V186.672H207.872V187.789H204.6V177.984Z" fill="#441105"/>
<path d="M212.171 178.188V179.477C211.796 179.189 211.459 179.045 211.159 179.045C210.836 179.045 210.571 179.168 210.366 179.413C210.161 179.646 210.059 179.957 210.059 180.347C210.059 180.69 210.132 180.984 210.278 181.229C210.352 181.361 210.475 181.53 210.644 181.737C210.818 181.945 211.041 182.195 211.313 182.487C211.814 183.033 212.155 183.505 212.337 183.903C212.518 184.288 212.609 184.76 212.609 185.319C212.609 186.077 212.41 186.701 212.011 187.192C211.613 187.671 211.102 187.91 210.479 187.91C209.954 187.91 209.506 187.755 209.135 187.446V186.138C209.573 186.481 209.972 186.653 210.331 186.653C210.666 186.653 210.928 186.534 211.118 186.297C211.307 186.056 211.402 185.73 211.402 185.319C211.402 184.963 211.329 184.644 211.183 184.36C211.108 184.225 211.003 184.07 210.869 183.897C210.735 183.719 210.567 183.522 210.366 183.306C210.055 182.976 209.796 182.684 209.591 182.43C209.386 182.176 209.234 181.953 209.135 181.763C208.946 181.39 208.851 180.92 208.851 180.353C208.851 179.587 209.037 178.979 209.408 178.53C209.782 178.077 210.285 177.851 210.917 177.851C211.355 177.851 211.773 177.963 212.171 178.188Z" fill="#441105"/>
<path d="M62.76 105.2H59.04V115.592H59.016L50.976 105.2H47.832V122H51.552V111.656H51.576L59.592 122H62.76V105.2Z" fill="#441105"/>
<path d="M73.5874 104.84C68.5954 104.84 64.7314 108.344 64.7314 113.6C64.7314 118.856 68.5954 122.36 73.5874 122.36C78.5794 122.36 82.4434 118.856 82.4434 113.6C82.4434 108.344 78.5794 104.84 73.5874 104.84ZM73.5874 108.68C76.2754 108.68 78.3394 110.576 78.3394 113.6C78.3394 116.624 76.2754 118.52 73.5874 118.52C70.8994 118.52 68.8354 116.624 68.8354 113.6C68.8354 110.576 70.8994 108.68 73.5874 108.68Z" fill="#441105"/>
<path d="M101.588 122H105.74L99.1155 105.2H95.1795L88.5555 122H92.7315L93.9315 118.592H100.388L101.588 122ZM95.0835 115.28L97.1475 109.328L99.2355 115.28H95.0835Z" fill="#441105"/>
<path d="M115.652 122H120.308L115.508 115.448C118.1 114.848 119.42 112.928 119.42 110.456C119.42 107.528 117.476 105.2 113.708 105.2H106.988V122H110.708V115.64H111.428L115.652 122ZM110.708 108.584H113.156C114.644 108.584 115.484 109.304 115.484 110.552C115.484 111.944 114.644 112.52 113.156 112.52H110.708V108.584Z" fill="#441105"/>
<path d="M132.517 105.2H119.941V108.68H124.381V122H128.101V108.68H132.517V105.2Z" fill="#441105"/>
<path d="M137.825 105.2H134.105V122H137.825V105.2Z" fill="#441105"/>
<path d="M151.49 108.68V105.2H140.762V122H144.482V115.496H150.554V112.112H144.482V108.68H151.49Z" fill="#441105"/>
<path d="M156.833 105.2H153.113V122H156.833V105.2Z" fill="#441105"/>
<path d="M168.026 122.36C170.642 122.36 172.586 121.52 174.05 120.488L172.034 117.224C170.954 117.944 169.658 118.52 168.026 118.52C165.098 118.52 162.914 116.648 162.914 113.6C162.914 110.552 165.098 108.68 168.026 108.68C169.658 108.68 170.954 109.256 172.034 109.976L174.05 106.712C172.586 105.68 170.642 104.84 168.026 104.84C162.722 104.84 158.81 108.248 158.81 113.6C158.81 118.952 162.722 122.36 168.026 122.36Z" fill="#441105"/>
<path d="M179.497 105.2H175.777V122H179.497V105.2Z" fill="#441105"/>
<path d="M193.791 122H197.943L191.319 105.2H187.383L180.759 122H184.935L186.135 118.592H192.591L193.791 122ZM187.287 115.28L189.351 109.328L191.439 115.28H187.287Z" fill="#441105"/>
<path d="M202.911 105.2H199.191V122H209.607V118.496H202.911V105.2Z" fill="#441105"/>
<path d="M54.3697 153.18C55.6777 153.18 56.6497 152.76 57.3817 152.244L56.3737 150.612C55.8337 150.972 55.1857 151.26 54.3697 151.26C52.9057 151.26 51.8137 150.324 51.8137 148.8C51.8137 147.276 52.9057 146.34 54.3697 146.34C55.1857 146.34 55.8337 146.628 56.3737 146.988L57.3817 145.356C56.6497 144.84 55.6777 144.42 54.3697 144.42C51.7177 144.42 49.7617 146.124 49.7617 148.8C49.7617 151.476 51.7177 153.18 54.3697 153.18Z" fill="#441105"/>
<path d="M64.1586 144.42C61.6626 144.42 59.7306 146.172 59.7306 148.8C59.7306 151.428 61.6626 153.18 64.1586 153.18C66.6546 153.18 68.5866 151.428 68.5866 148.8C68.5866 146.172 66.6546 144.42 64.1586 144.42ZM64.1586 146.34C65.5026 146.34 66.5346 147.288 66.5346 148.8C66.5346 150.312 65.5026 151.26 64.1586 151.26C62.8146 151.26 61.7826 150.312 61.7826 148.8C61.7826 147.288 62.8146 146.34 64.1586 146.34Z" fill="#441105"/>
<path d="M73.7739 144.6H71.9139V153H77.1219V151.248H73.7739V144.6Z" fill="#441105"/>
<path d="M83.78 144.42C81.284 144.42 79.352 146.172 79.352 148.8C79.352 151.428 81.284 153.18 83.78 153.18C86.276 153.18 88.208 151.428 88.208 148.8C88.208 146.172 86.276 144.42 83.78 144.42ZM83.78 146.34C85.124 146.34 86.156 147.288 86.156 148.8C86.156 150.312 85.124 151.26 83.78 151.26C82.436 151.26 81.404 150.312 81.404 148.8C81.404 147.288 82.436 146.34 83.78 146.34Z" fill="#441105"/>
<path d="M95.8673 153H98.1953L95.7953 149.724C97.0913 149.424 97.7513 148.464 97.7513 147.228C97.7513 145.764 96.7793 144.6 94.8953 144.6H91.5353V153H93.3953V149.82H93.7553L95.8673 153ZM93.3953 146.292H94.6193C95.3633 146.292 95.7833 146.652 95.7833 147.276C95.7833 147.972 95.3633 148.26 94.6193 148.26H93.3953V146.292Z" fill="#441105"/>
<path d="M103.792 144.42C102.016 144.42 101.116 145.296 101.116 146.664C101.116 147.612 101.572 148.416 102.664 149.064L103.948 149.868C104.416 150.156 104.74 150.384 104.74 150.768C104.74 151.212 104.38 151.44 103.708 151.44C102.94 151.44 102.148 151.164 101.344 150.672L100.504 152.34C101.452 152.892 102.508 153.18 103.636 153.18C105.592 153.18 106.696 152.304 106.696 150.684C106.696 149.508 106.108 148.836 105.1 148.224L103.708 147.348C103.228 147.06 103.072 146.892 103.072 146.64C103.072 146.352 103.252 146.148 103.84 146.148C104.392 146.148 104.968 146.316 105.736 146.676L106.516 145.032C105.52 144.6 104.596 144.42 103.792 144.42Z" fill="#441105"/>
<path d="M119.472 144.42C116.976 144.42 115.044 146.172 115.044 148.8C115.044 151.428 116.976 153.18 119.472 153.18C121.968 153.18 123.9 151.428 123.9 148.8C123.9 146.172 121.968 144.42 119.472 144.42ZM119.472 146.34C120.816 146.34 121.848 147.288 121.848 148.8C121.848 150.312 120.816 151.26 119.472 151.26C118.128 151.26 117.096 150.312 117.096 148.8C117.096 147.288 118.128 146.34 119.472 146.34Z" fill="#441105"/>
<path d="M131.559 153H133.887L131.487 149.724C132.783 149.424 133.443 148.464 133.443 147.228C133.443 145.764 132.471 144.6 130.587 144.6H127.227V153H129.087V149.82H129.447L131.559 153ZM129.087 146.292H130.311C131.055 146.292 131.475 146.652 131.475 147.276C131.475 147.972 131.055 148.26 130.311 148.26H129.087V146.292Z" fill="#441105"/>
<path d="M147.83 146.34V144.6H142.466V153H144.326V149.748H147.362V148.056H144.326V146.34H147.83Z" fill="#441105"/>
<path d="M152.842 144.6H150.982V153H156.19V151.248H152.842V144.6Z" fill="#441105"/>
<path d="M165.235 153H167.311L163.999 144.6H162.031L158.719 153H160.807L161.407 151.296H164.635L165.235 153ZM161.983 149.64L163.015 146.664L164.059 149.64H161.983Z" fill="#441105"/>
<path d="M176.829 144.6H174.609L172.665 150.6H172.641L170.697 144.6H168.477L171.657 153H173.649L176.829 144.6Z" fill="#441105"/>
<path d="M183.313 144.42C180.817 144.42 178.885 146.172 178.885 148.8C178.885 151.428 180.817 153.18 183.313 153.18C185.809 153.18 187.741 151.428 187.741 148.8C187.741 146.172 185.809 144.42 183.313 144.42ZM183.313 146.34C184.657 146.34 185.689 147.288 185.689 148.8C185.689 150.312 184.657 151.26 183.313 151.26C181.969 151.26 180.937 150.312 180.937 148.8C180.937 147.288 181.969 146.34 183.313 146.34Z" fill="#441105"/>
<path d="M195.4 153H197.728L195.328 149.724C196.624 149.424 197.284 148.464 197.284 147.228C197.284 145.764 196.312 144.6 194.428 144.6H191.068V153H192.928V149.82H193.288L195.4 153ZM192.928 146.292H194.152C194.896 146.292 195.316 146.652 195.316 147.276C195.316 147.972 194.896 148.26 194.152 148.26H192.928V146.292Z" fill="#441105"/>
<path d="M203.325 144.42C201.549 144.42 200.649 145.296 200.649 146.664C200.649 147.612 201.105 148.416 202.197 149.064L203.481 149.868C203.949 150.156 204.273 150.384 204.273 150.768C204.273 151.212 203.913 151.44 203.241 151.44C202.473 151.44 201.681 151.164 200.877 150.672L200.037 152.34C200.985 152.892 202.041 153.18 203.169 153.18C205.125 153.18 206.229 152.304 206.229 150.684C206.229 149.508 205.641 148.836 204.633 148.224L203.241 147.348C202.761 147.06 202.605 146.892 202.605 146.64C202.605 146.352 202.785 146.148 203.373 146.148C203.925 146.148 204.501 146.316 205.269 146.676L206.049 145.032C205.053 144.6 204.129 144.42 203.325 144.42Z" fill="#441105"/>
<path fill-rule="evenodd" clip-rule="evenodd" d="M211 135L45 135L45 132.5L211 132.5L211 135Z" fill="#441105"/>
<path fill-rule="evenodd" clip-rule="evenodd" d="M215 92H42C39.2386 92 37 94.2386 37 97V160C37 162.761 39.2386 165 42 165H215C217.761 165 220 162.761 220 160V97C220 94.2386 217.761 92 215 92ZM42 87C36.4772 87 32 91.4772 32 97V160C32 165.523 36.4772 170 42 170H215C220.523 170 225 165.523 225 160V97C225 91.4772 220.523 87 215 87H42Z" fill="#441105"/>
</svg>
