<svg width="256" height="256" viewBox="0 0 256 256" fill="none" xmlns="http://www.w3.org/2000/svg">
<path d="M39.3496 177.215H39.9146L39.8701 178.993L41.5459 178.402L41.7173 178.936L40.0161 179.443L41.0952 180.859L40.6382 181.189L39.6353 179.723L38.626 181.189L38.1689 180.859L39.248 179.443L37.5469 178.936L37.7183 178.402L39.394 178.993L39.3496 177.215Z" fill="#441105"/>
<path d="M44.7322 178.199H45.7605L47.8616 188H46.5539L46.1858 186.089H44.2434L43.8689 188H42.5994L44.7322 178.199ZM45.9954 185.067L45.7034 183.506C45.5087 182.444 45.35 181.31 45.2273 180.104C45.168 180.692 45.0919 181.288 44.9988 181.894C44.9057 182.494 44.7956 183.133 44.6687 183.811L44.4275 185.067H45.9954Z" fill="#441105"/>
<path d="M48.9023 178.199H50.5273C51.0224 178.199 51.4393 178.254 51.7778 178.364C52.091 178.47 52.3703 178.658 52.6157 178.929C52.9839 179.335 53.2462 179.864 53.4028 180.516C53.5594 181.147 53.6377 182.05 53.6377 183.227C53.6377 184.306 53.5509 185.186 53.3774 185.867C53.2082 186.519 52.9289 187.016 52.5395 187.359C52.0613 187.786 51.2044 188 49.9687 188H48.9023V178.199ZM50.2226 186.845C51.0267 186.845 51.5641 186.601 51.8349 186.115C52.1142 185.628 52.2539 184.682 52.2539 183.277C52.2539 181.767 52.1206 180.728 51.854 180.161C51.5874 179.594 51.0986 179.31 50.3877 179.31H50.2226V186.845Z" fill="#441105"/>
<path d="M55.218 178.199H56.843C57.3381 178.199 57.7549 178.254 58.0935 178.364C58.4066 178.47 58.6859 178.658 58.9314 178.929C59.2995 179.335 59.5619 179.864 59.7185 180.516C59.8751 181.147 59.9533 182.05 59.9533 183.227C59.9533 184.306 59.8666 185.186 59.6931 185.867C59.5238 186.519 59.2445 187.016 58.8552 187.359C58.377 187.786 57.5201 188 56.2844 188H55.218V178.199ZM56.5383 186.845C57.3423 186.845 57.8798 186.601 58.1506 186.115C58.4299 185.628 58.5695 184.682 58.5695 183.277C58.5695 181.767 58.4362 180.728 58.1696 180.161C57.903 179.594 57.4143 179.31 56.7033 179.31H56.5383V186.845Z" fill="#441105"/>
<path d="M61.5337 178.199H65.0439V179.316H62.854V182.42H64.7963V183.538H62.854V186.883H65.0439V188H61.5337V178.199Z" fill="#441105"/>
<path d="M66.5163 178.199H68.1413C68.6364 178.199 69.0533 178.254 69.3918 178.364C69.7049 178.47 69.9842 178.658 70.2297 178.929C70.5979 179.335 70.8602 179.864 71.0168 180.516C71.1734 181.147 71.2517 182.05 71.2517 183.227C71.2517 184.306 71.1649 185.186 70.9914 185.867C70.8221 186.519 70.5428 187.016 70.1535 187.359C69.6753 187.786 68.8184 188 67.5827 188H66.5163V178.199ZM67.8366 186.845C68.6407 186.845 69.1781 186.601 69.4489 186.115C69.7282 185.628 69.8679 184.682 69.8679 183.277C69.8679 181.767 69.7346 180.728 69.468 180.161C69.2014 179.594 68.7126 179.31 68.0017 179.31H67.8366V186.845Z" fill="#441105"/>
<path d="M79.6301 178.358V179.545C79.2915 179.38 79.008 179.297 78.7795 179.297C78.4663 179.297 78.1976 179.376 77.9733 179.532C77.749 179.685 77.5628 179.922 77.4147 180.243C77.2708 180.565 77.1629 180.973 77.091 181.468C77.0233 181.959 76.9894 182.541 76.9894 183.214C76.9894 185.634 77.6094 186.845 78.8493 186.845C79.0651 186.845 79.3254 186.777 79.6301 186.642V187.854C79.3127 188.032 78.9572 188.121 78.5637 188.121C76.579 188.121 75.5866 186.5 75.5866 183.258C75.5866 181.506 75.8278 180.203 76.3102 179.348C76.7969 178.493 77.5396 178.066 78.5383 178.066C78.9064 178.066 79.2704 178.163 79.6301 178.358Z" fill="#441105"/>
<path d="M85.8378 183.341C85.8378 185.072 85.6453 186.301 85.2602 187.029C84.8751 187.757 84.2297 188.121 83.3241 188.121C82.372 188.121 81.7013 187.729 81.3119 186.946C80.9268 186.18 80.7343 184.82 80.7343 182.865C80.7343 181.121 80.9247 179.888 81.3056 179.164C81.6907 178.436 82.3424 178.072 83.2607 178.072C84.0816 178.072 84.691 178.354 85.0888 178.917C85.3512 179.293 85.5416 179.828 85.6601 180.522C85.7786 181.166 85.8378 182.105 85.8378 183.341ZM84.454 183.48C84.454 181.784 84.3779 180.658 84.2255 180.104C84.0732 179.545 83.7621 179.266 83.2924 179.266C82.8227 179.266 82.5095 179.522 82.353 180.034C82.2006 180.55 82.1244 181.587 82.1244 183.144C82.1244 184.579 82.2048 185.573 82.3656 186.127C82.5307 186.652 82.8396 186.915 83.2924 186.915C83.7367 186.915 84.0414 186.669 84.2065 186.178C84.3715 185.692 84.454 184.792 84.454 183.48Z" fill="#441105"/>
<path d="M87.4118 178.199H88.7321V186.883H90.8903V188H87.4118V178.199Z" fill="#441105"/>
<path d="M96.8822 183.341C96.8822 185.072 96.6897 186.301 96.3046 187.029C95.9195 187.757 95.2742 188.121 94.3686 188.121C93.4164 188.121 92.7457 187.729 92.3563 186.946C91.9713 186.18 91.7787 184.82 91.7787 182.865C91.7787 181.121 91.9691 179.888 92.35 179.164C92.7351 178.436 93.3868 178.072 94.3051 178.072C95.126 178.072 95.7354 178.354 96.1332 178.917C96.3956 179.293 96.586 179.828 96.7045 180.522C96.823 181.166 96.8822 182.105 96.8822 183.341ZM95.4984 183.48C95.4984 181.784 95.4223 180.658 95.2699 180.104C95.1176 179.545 94.8065 179.266 94.3368 179.266C93.8671 179.266 93.5539 179.522 93.3974 180.034C93.245 180.55 93.1688 181.587 93.1688 183.144C93.1688 184.579 93.2492 185.573 93.4101 186.127C93.5751 186.652 93.884 186.915 94.3368 186.915C94.7812 186.915 95.0858 186.669 95.2509 186.178C95.4159 185.692 95.4984 184.792 95.4984 183.48Z" fill="#441105"/>
<path d="M98.4562 178.199H100.195C100.915 178.199 101.45 178.371 101.801 178.713C102.246 179.158 102.468 179.837 102.468 180.751C102.468 181.453 102.349 182.018 102.112 182.446C101.88 182.869 101.545 183.131 101.11 183.233L102.912 188H101.573L99.7765 183.201V188H98.4562V178.199ZM99.7765 182.541C100.289 182.541 100.65 182.423 100.862 182.186C101.074 181.949 101.179 181.549 101.179 180.986C101.179 180.681 101.156 180.421 101.11 180.205C101.067 179.989 100.997 179.814 100.9 179.678C100.807 179.543 100.684 179.443 100.532 179.38C100.384 179.316 100.206 179.285 99.9987 179.285H99.7765V182.541Z" fill="#441105"/>
<path d="M107.47 178.402V179.691C107.068 179.403 106.706 179.259 106.384 179.259C106.037 179.259 105.754 179.382 105.534 179.627C105.314 179.86 105.203 180.171 105.203 180.561C105.203 180.903 105.282 181.197 105.438 181.443C105.519 181.574 105.65 181.743 105.832 181.951C106.018 182.158 106.257 182.408 106.549 182.7C107.087 183.246 107.453 183.717 107.647 184.115C107.842 184.5 107.939 184.972 107.939 185.531C107.939 186.288 107.726 186.912 107.298 187.403C106.871 187.882 106.323 188.121 105.654 188.121C105.091 188.121 104.611 187.966 104.213 187.657V186.35C104.683 186.692 105.11 186.864 105.495 186.864C105.855 186.864 106.137 186.745 106.34 186.508C106.543 186.267 106.644 185.941 106.644 185.531C106.644 185.175 106.566 184.856 106.41 184.572C106.329 184.437 106.217 184.282 106.073 184.109C105.929 183.931 105.749 183.734 105.534 183.519C105.199 183.188 104.922 182.896 104.702 182.643C104.482 182.389 104.319 182.167 104.213 181.976C104.01 181.604 103.909 181.134 103.909 180.567C103.909 179.801 104.107 179.194 104.505 178.745C104.907 178.292 105.447 178.066 106.124 178.066C106.594 178.066 107.042 178.178 107.47 178.402Z" fill="#441105"/>
<path d="M112.262 178.199H115.791V179.316H113.582V182.414H115.575V183.531H113.582V188H112.262V178.199Z" fill="#441105"/>
<path d="M117.067 178.199H118.806C119.525 178.199 120.06 178.371 120.412 178.713C120.856 179.158 121.078 179.837 121.078 180.751C121.078 181.453 120.96 182.018 120.723 182.446C120.49 182.869 120.156 183.131 119.72 183.233L121.523 188H120.183L118.387 183.201V188H117.067V178.199ZM118.387 182.541C118.899 182.541 119.261 182.423 119.472 182.186C119.684 181.949 119.79 181.549 119.79 180.986C119.79 180.681 119.766 180.421 119.72 180.205C119.678 179.989 119.608 179.814 119.51 179.678C119.417 179.543 119.295 179.443 119.142 179.38C118.994 179.316 118.816 179.285 118.609 179.285H118.387V182.541Z" fill="#441105"/>
<path d="M127.603 183.341C127.603 185.072 127.411 186.301 127.026 187.029C126.641 187.757 125.995 188.121 125.09 188.121C124.138 188.121 123.467 187.729 123.077 186.946C122.692 186.18 122.5 184.82 122.5 182.865C122.5 181.121 122.69 179.888 123.071 179.164C123.456 178.436 124.108 178.072 125.026 178.072C125.847 178.072 126.457 178.354 126.854 178.917C127.117 179.293 127.307 179.828 127.426 180.522C127.544 181.166 127.603 182.105 127.603 183.341ZM126.22 183.48C126.22 181.784 126.143 180.658 125.991 180.104C125.839 179.545 125.528 179.266 125.058 179.266C124.588 179.266 124.275 179.522 124.118 180.034C123.966 180.55 123.89 181.587 123.89 183.144C123.89 184.579 123.97 185.573 124.131 186.127C124.296 186.652 124.605 186.915 125.058 186.915C125.502 186.915 125.807 186.669 125.972 186.178C126.137 185.692 126.22 184.792 126.22 183.48Z" fill="#441105"/>
<path d="M129.641 178.199H130.771L131.634 182.198C131.74 182.698 131.835 183.199 131.92 183.703C132.008 184.202 132.089 184.727 132.161 185.277C132.169 185.205 132.176 185.15 132.18 185.112C132.184 185.069 132.188 185.04 132.192 185.023L132.377 183.899L132.542 182.833L132.688 182.128L133.456 178.199H134.598L135.5 188H134.236L134.014 184.674C134.006 184.505 133.997 184.359 133.989 184.236C133.985 184.113 133.982 184.012 133.982 183.931L133.925 182.617L133.894 181.411C133.894 181.403 133.892 181.386 133.887 181.36C133.887 181.331 133.885 181.293 133.881 181.246L133.849 181.443C133.815 181.676 133.784 181.879 133.754 182.052C133.729 182.226 133.705 182.372 133.684 182.49L133.519 183.385L133.456 183.722L132.63 188H131.742L130.967 184.306C130.862 183.819 130.766 183.326 130.682 182.827C130.601 182.323 130.527 181.796 130.46 181.246L130.079 188H128.835L129.641 178.199Z" fill="#441105"/>
<path d="M139.803 178.199H141.034L142.348 182.109C142.729 183.214 143.065 184.392 143.357 185.645C143.252 184.888 143.173 184.202 143.123 183.588C143.072 182.975 143.046 182.397 143.046 181.855V178.199H144.373V188H143.135L141.656 183.588C141.521 183.178 141.392 182.757 141.269 182.325C141.151 181.894 141.041 181.441 140.939 180.967C140.931 180.908 140.916 180.836 140.895 180.751C140.878 180.666 140.857 180.569 140.831 180.459C140.844 180.569 140.854 180.664 140.863 180.745C140.871 180.821 140.878 180.886 140.882 180.941L140.952 181.938L141.022 183.15C141.026 183.218 141.028 183.301 141.028 183.398C141.032 183.495 141.034 183.605 141.034 183.728L141.104 188H139.803V178.199Z" fill="#441105"/>
<path d="M147.731 178.199H148.759L150.86 188H149.553L149.184 186.089H147.242L146.867 188H145.598L147.731 178.199ZM148.994 185.067L148.702 183.506C148.507 182.444 148.349 181.31 148.226 180.104C148.167 180.692 148.09 181.288 147.997 181.894C147.904 182.494 147.794 183.133 147.667 183.811L147.426 185.067H148.994Z" fill="#441105"/>
<path d="M150.904 178.199H155.202V179.354H153.723V188H152.428V179.354H150.904V178.199Z" fill="#441105"/>
<path d="M156.198 178.199H157.493V185.125C157.493 185.831 157.556 186.301 157.683 186.534C157.815 186.766 158.073 186.883 158.458 186.883C158.843 186.883 159.097 186.781 159.22 186.578C159.346 186.371 159.41 185.95 159.41 185.315V178.199H160.705V185.315C160.705 186.381 160.542 187.103 160.216 187.479C159.827 187.907 159.232 188.121 158.432 188.121C157.552 188.121 156.932 187.846 156.573 187.295C156.323 186.919 156.198 186.195 156.198 185.125V178.199Z" fill="#441105"/>
<path d="M162.476 178.199H164.215C164.934 178.199 165.47 178.371 165.821 178.713C166.265 179.158 166.487 179.837 166.487 180.751C166.487 181.453 166.369 182.018 166.132 182.446C165.899 182.869 165.565 183.131 165.129 183.233L166.932 188H165.592L163.796 183.201V188H162.476V178.199ZM163.796 182.541C164.308 182.541 164.67 182.423 164.881 182.186C165.093 181.949 165.199 181.549 165.199 180.986C165.199 180.681 165.175 180.421 165.129 180.205C165.087 179.989 165.017 179.814 164.919 179.678C164.826 179.543 164.704 179.443 164.551 179.38C164.403 179.316 164.225 179.285 164.018 179.285H163.796V182.541Z" fill="#441105"/>
<path d="M169.616 178.199H170.645L172.746 188H171.438L171.07 186.089H169.128L168.753 188H167.484L169.616 178.199ZM170.88 185.067L170.588 183.506C170.393 182.444 170.234 181.31 170.112 180.104C170.052 180.692 169.976 181.288 169.883 181.894C169.79 182.494 169.68 183.133 169.553 183.811L169.312 185.067H170.88Z" fill="#441105"/>
<path d="M173.787 178.199H175.107V186.883H177.265V188H173.787V178.199Z" fill="#441105"/>
<path d="M184.571 178.402V179.691C184.169 179.403 183.807 179.259 183.485 179.259C183.138 179.259 182.855 179.382 182.635 179.627C182.415 179.86 182.305 180.171 182.305 180.561C182.305 180.903 182.383 181.197 182.54 181.443C182.62 181.574 182.751 181.743 182.933 181.951C183.119 182.158 183.358 182.408 183.65 182.7C184.188 183.246 184.554 183.717 184.749 184.115C184.943 184.5 185.041 184.972 185.041 185.531C185.041 186.288 184.827 186.912 184.399 187.403C183.972 187.882 183.424 188.121 182.755 188.121C182.193 188.121 181.712 187.966 181.314 187.657V186.35C181.784 186.692 182.212 186.864 182.597 186.864C182.956 186.864 183.238 186.745 183.441 186.508C183.644 186.267 183.746 185.941 183.746 185.531C183.746 185.175 183.667 184.856 183.511 184.572C183.43 184.437 183.318 184.282 183.174 184.109C183.03 183.931 182.851 183.734 182.635 183.519C182.3 183.188 182.023 182.896 181.803 182.643C181.583 182.389 181.42 182.167 181.314 181.976C181.111 181.604 181.01 181.134 181.01 180.567C181.01 179.801 181.209 179.194 181.606 178.745C182.008 178.292 182.548 178.066 183.225 178.066C183.695 178.066 184.143 178.178 184.571 178.402Z" fill="#441105"/>
<path d="M191.318 183.341C191.318 185.072 191.126 186.301 190.74 187.029C190.355 187.757 189.71 188.121 188.804 188.121C187.852 188.121 187.182 187.729 186.792 186.946C186.407 186.18 186.215 184.82 186.215 182.865C186.215 181.121 186.405 179.888 186.786 179.164C187.171 178.436 187.823 178.072 188.741 178.072C189.562 178.072 190.171 178.354 190.569 178.917C190.831 179.293 191.022 179.828 191.14 180.522C191.259 181.166 191.318 182.105 191.318 183.341ZM189.934 183.48C189.934 181.784 189.858 180.658 189.706 180.104C189.553 179.545 189.242 179.266 188.773 179.266C188.303 179.266 187.99 179.522 187.833 180.034C187.681 180.55 187.605 181.587 187.605 183.144C187.605 184.579 187.685 185.573 187.846 186.127C188.011 186.652 188.32 186.915 188.773 186.915C189.217 186.915 189.522 186.669 189.687 186.178C189.852 185.692 189.934 184.792 189.934 183.48Z" fill="#441105"/>
<path d="M192.892 178.199H194.187V185.125C194.187 185.831 194.25 186.301 194.377 186.534C194.509 186.766 194.767 186.883 195.152 186.883C195.537 186.883 195.791 186.781 195.914 186.578C196.04 186.371 196.104 185.95 196.104 185.315V178.199H197.399V185.315C197.399 186.381 197.236 187.103 196.91 187.479C196.521 187.907 195.926 188.121 195.126 188.121C194.246 188.121 193.626 187.846 193.267 187.295C193.017 186.919 192.892 186.195 192.892 185.125V178.199Z" fill="#441105"/>
<path d="M199.17 178.199H200.909C201.628 178.199 202.164 178.371 202.515 178.713C202.959 179.158 203.181 179.837 203.181 180.751C203.181 181.453 203.063 182.018 202.826 182.446C202.593 182.869 202.259 183.131 201.823 183.233L203.626 188H202.286L200.49 183.201V188H199.17V178.199ZM200.49 182.541C201.002 182.541 201.364 182.423 201.575 182.186C201.787 181.949 201.893 181.549 201.893 180.986C201.893 180.681 201.87 180.421 201.823 180.205C201.781 179.989 201.711 179.814 201.613 179.678C201.52 179.543 201.398 179.443 201.245 179.38C201.097 179.316 200.919 179.285 200.712 179.285H200.49V182.541Z" fill="#441105"/>
<path d="M208.608 178.358V179.545C208.27 179.38 207.986 179.297 207.758 179.297C207.445 179.297 207.176 179.376 206.952 179.532C206.727 179.685 206.541 179.922 206.393 180.243C206.249 180.565 206.141 180.973 206.069 181.468C206.002 181.959 205.968 182.541 205.968 183.214C205.968 185.634 206.588 186.845 207.828 186.845C208.043 186.845 208.304 186.777 208.608 186.642V187.854C208.291 188.032 207.935 188.121 207.542 188.121C205.557 188.121 204.565 186.5 204.565 183.258C204.565 181.506 204.806 180.203 205.289 179.348C205.775 178.493 206.518 178.066 207.517 178.066C207.885 178.066 208.249 178.163 208.608 178.358Z" fill="#441105"/>
<path d="M209.986 178.199H213.496V179.316H211.306V182.42H213.248V183.538H211.306V186.883H213.496V188H209.986V178.199Z" fill="#441105"/>
<path d="M218.237 178.402V179.691C217.835 179.403 217.473 179.259 217.152 179.259C216.805 179.259 216.521 179.382 216.301 179.627C216.081 179.86 215.971 180.171 215.971 180.561C215.971 180.903 216.049 181.197 216.206 181.443C216.286 181.574 216.418 181.743 216.6 181.951C216.786 182.158 217.025 182.408 217.317 182.7C217.854 183.246 218.22 183.717 218.415 184.115C218.61 184.5 218.707 184.972 218.707 185.531C218.707 186.288 218.493 186.912 218.066 187.403C217.638 187.882 217.09 188.121 216.422 188.121C215.859 188.121 215.379 187.966 214.981 187.657V186.35C215.451 186.692 215.878 186.864 216.263 186.864C216.623 186.864 216.904 186.745 217.107 186.508C217.31 186.267 217.412 185.941 217.412 185.531C217.412 185.175 217.334 184.856 217.177 184.572C217.097 184.437 216.985 184.282 216.841 184.109C216.697 183.931 216.517 183.734 216.301 183.519C215.967 183.188 215.69 182.896 215.47 182.643C215.25 182.389 215.087 182.167 214.981 181.976C214.778 181.604 214.676 181.134 214.676 180.567C214.676 179.801 214.875 179.194 215.273 178.745C215.675 178.292 216.214 178.066 216.892 178.066C217.361 178.066 217.81 178.178 218.237 178.402Z" fill="#441105"/>
<path d="M62.76 105.2H59.04V115.592H59.016L50.976 105.2H47.832V122H51.552V111.656H51.576L59.592 122H62.76V105.2Z" fill="#441105"/>
<path d="M73.5874 104.84C68.5954 104.84 64.7314 108.344 64.7314 113.6C64.7314 118.856 68.5954 122.36 73.5874 122.36C78.5794 122.36 82.4434 118.856 82.4434 113.6C82.4434 108.344 78.5794 104.84 73.5874 104.84ZM73.5874 108.68C76.2754 108.68 78.3394 110.576 78.3394 113.6C78.3394 116.624 76.2754 118.52 73.5874 118.52C70.8994 118.52 68.8354 116.624 68.8354 113.6C68.8354 110.576 70.8994 108.68 73.5874 108.68Z" fill="#441105"/>
<path d="M101.588 122H105.74L99.1155 105.2H95.1795L88.5555 122H92.7315L93.9315 118.592H100.388L101.588 122ZM95.0835 115.28L97.1475 109.328L99.2355 115.28H95.0835Z" fill="#441105"/>
<path d="M115.652 122H120.308L115.508 115.448C118.1 114.848 119.42 112.928 119.42 110.456C119.42 107.528 117.476 105.2 113.708 105.2H106.988V122H110.708V115.64H111.428L115.652 122ZM110.708 108.584H113.156C114.644 108.584 115.484 109.304 115.484 110.552C115.484 111.944 114.644 112.52 113.156 112.52H110.708V108.584Z" fill="#441105"/>
<path d="M132.517 105.2H119.941V108.68H124.381V122H128.101V108.68H132.517V105.2Z" fill="#441105"/>
<path d="M137.825 105.2H134.105V122H137.825V105.2Z" fill="#441105"/>
<path d="M151.49 108.68V105.2H140.762V122H144.482V115.496H150.554V112.112H144.482V108.68H151.49Z" fill="#441105"/>
<path d="M156.833 105.2H153.113V122H156.833V105.2Z" fill="#441105"/>
<path d="M168.026 122.36C170.642 122.36 172.586 121.52 174.05 120.488L172.034 117.224C170.954 117.944 169.658 118.52 168.026 118.52C165.098 118.52 162.914 116.648 162.914 113.6C162.914 110.552 165.098 108.68 168.026 108.68C169.658 108.68 170.954 109.256 172.034 109.976L174.05 106.712C172.586 105.68 170.642 104.84 168.026 104.84C162.722 104.84 158.81 108.248 158.81 113.6C158.81 118.952 162.722 122.36 168.026 122.36Z" fill="#441105"/>
<path d="M179.497 105.2H175.777V122H179.497V105.2Z" fill="#441105"/>
<path d="M193.791 122H197.943L191.319 105.2H187.383L180.759 122H184.935L186.135 118.592H192.591L193.791 122ZM187.287 115.28L189.351 109.328L191.439 115.28H187.287Z" fill="#441105"/>
<path d="M202.911 105.2H199.191V122H209.607V118.496H202.911V105.2Z" fill="#441105"/>
<path d="M54.3697 153.18C55.6777 153.18 56.6497 152.76 57.3817 152.244L56.3737 150.612C55.8337 150.972 55.1857 151.26 54.3697 151.26C52.9057 151.26 51.8137 150.324 51.8137 148.8C51.8137 147.276 52.9057 146.34 54.3697 146.34C55.1857 146.34 55.8337 146.628 56.3737 146.988L57.3817 145.356C56.6497 144.84 55.6777 144.42 54.3697 144.42C51.7177 144.42 49.7617 146.124 49.7617 148.8C49.7617 151.476 51.7177 153.18 54.3697 153.18Z" fill="#441105"/>
<path d="M64.1586 144.42C61.6626 144.42 59.7306 146.172 59.7306 148.8C59.7306 151.428 61.6626 153.18 64.1586 153.18C66.6546 153.18 68.5866 151.428 68.5866 148.8C68.5866 146.172 66.6546 144.42 64.1586 144.42ZM64.1586 146.34C65.5026 146.34 66.5346 147.288 66.5346 148.8C66.5346 150.312 65.5026 151.26 64.1586 151.26C62.8146 151.26 61.7826 150.312 61.7826 148.8C61.7826 147.288 62.8146 146.34 64.1586 146.34Z" fill="#441105"/>
<path d="M73.7739 144.6H71.9139V153H77.1219V151.248H73.7739V144.6Z" fill="#441105"/>
<path d="M83.78 144.42C81.284 144.42 79.352 146.172 79.352 148.8C79.352 151.428 81.284 153.18 83.78 153.18C86.276 153.18 88.208 151.428 88.208 148.8C88.208 146.172 86.276 144.42 83.78 144.42ZM83.78 146.34C85.124 146.34 86.156 147.288 86.156 148.8C86.156 150.312 85.124 151.26 83.78 151.26C82.436 151.26 81.404 150.312 81.404 148.8C81.404 147.288 82.436 146.34 83.78 146.34Z" fill="#441105"/>
<path d="M95.8673 153H98.1953L95.7953 149.724C97.0913 149.424 97.7513 148.464 97.7513 147.228C97.7513 145.764 96.7793 144.6 94.8953 144.6H91.5353V153H93.3953V149.82H93.7553L95.8673 153ZM93.3953 146.292H94.6193C95.3633 146.292 95.7833 146.652 95.7833 147.276C95.7833 147.972 95.3633 148.26 94.6193 148.26H93.3953V146.292Z" fill="#441105"/>
<path d="M103.792 144.42C102.016 144.42 101.116 145.296 101.116 146.664C101.116 147.612 101.572 148.416 102.664 149.064L103.948 149.868C104.416 150.156 104.74 150.384 104.74 150.768C104.74 151.212 104.38 151.44 103.708 151.44C102.94 151.44 102.148 151.164 101.344 150.672L100.504 152.34C101.452 152.892 102.508 153.18 103.636 153.18C105.592 153.18 106.696 152.304 106.696 150.684C106.696 149.508 106.108 148.836 105.1 148.224L103.708 147.348C103.228 147.06 103.072 146.892 103.072 146.64C103.072 146.352 103.252 146.148 103.84 146.148C104.392 146.148 104.968 146.316 105.736 146.676L106.516 145.032C105.52 144.6 104.596 144.42 103.792 144.42Z" fill="#441105"/>
<path d="M119.472 144.42C116.976 144.42 115.044 146.172 115.044 148.8C115.044 151.428 116.976 153.18 119.472 153.18C121.968 153.18 123.9 151.428 123.9 148.8C123.9 146.172 121.968 144.42 119.472 144.42ZM119.472 146.34C120.816 146.34 121.848 147.288 121.848 148.8C121.848 150.312 120.816 151.26 119.472 151.26C118.128 151.26 117.096 150.312 117.096 148.8C117.096 147.288 118.128 146.34 119.472 146.34Z" fill="#441105"/>
<path d="M131.559 153H133.887L131.487 149.724C132.783 149.424 133.443 148.464 133.443 147.228C133.443 145.764 132.471 144.6 130.587 144.6H127.227V153H129.087V149.82H129.447L131.559 153ZM129.087 146.292H130.311C131.055 146.292 131.475 146.652 131.475 147.276C131.475 147.972 131.055 148.26 130.311 148.26H129.087V146.292Z" fill="#441105"/>
<path d="M147.83 146.34V144.6H142.466V153H144.326V149.748H147.362V148.056H144.326V146.34H147.83Z" fill="#441105"/>
<path d="M152.842 144.6H150.982V153H156.19V151.248H152.842V144.6Z" fill="#441105"/>
<path d="M165.235 153H167.311L163.999 144.6H162.031L158.719 153H160.807L161.407 151.296H164.635L165.235 153ZM161.983 149.64L163.015 146.664L164.059 149.64H161.983Z" fill="#441105"/>
<path d="M176.829 144.6H174.609L172.665 150.6H172.641L170.697 144.6H168.477L171.657 153H173.649L176.829 144.6Z" fill="#441105"/>
<path d="M183.313 144.42C180.817 144.42 178.885 146.172 178.885 148.8C178.885 151.428 180.817 153.18 183.313 153.18C185.809 153.18 187.741 151.428 187.741 148.8C187.741 146.172 185.809 144.42 183.313 144.42ZM183.313 146.34C184.657 146.34 185.689 147.288 185.689 148.8C185.689 150.312 184.657 151.26 183.313 151.26C181.969 151.26 180.937 150.312 180.937 148.8C180.937 147.288 181.969 146.34 183.313 146.34Z" fill="#441105"/>
<path d="M195.4 153H197.728L195.328 149.724C196.624 149.424 197.284 148.464 197.284 147.228C197.284 145.764 196.312 144.6 194.428 144.6H191.068V153H192.928V149.82H193.288L195.4 153ZM192.928 146.292H194.152C194.896 146.292 195.316 146.652 195.316 147.276C195.316 147.972 194.896 148.26 194.152 148.26H192.928V146.292Z" fill="#441105"/>
<path d="M203.325 144.42C201.549 144.42 200.649 145.296 200.649 146.664C200.649 147.612 201.105 148.416 202.197 149.064L203.481 149.868C203.949 150.156 204.273 150.384 204.273 150.768C204.273 151.212 203.913 151.44 203.241 151.44C202.473 151.44 201.681 151.164 200.877 150.672L200.037 152.34C200.985 152.892 202.041 153.18 203.169 153.18C205.125 153.18 206.229 152.304 206.229 150.684C206.229 149.508 205.641 148.836 204.633 148.224L203.241 147.348C202.761 147.06 202.605 146.892 202.605 146.64C202.605 146.352 202.785 146.148 203.373 146.148C203.925 146.148 204.501 146.316 205.269 146.676L206.049 145.032C205.053 144.6 204.129 144.42 203.325 144.42Z" fill="#441105"/>
<path fill-rule="evenodd" clip-rule="evenodd" d="M211 135L45 135L45 132.5L211 132.5L211 135Z" fill="#441105"/>
<path fill-rule="evenodd" clip-rule="evenodd" d="M215 92H42C39.2386 92 37 94.2386 37 97V160C37 162.761 39.2386 165 42 165H215C217.761 165 220 162.761 220 160V97C220 94.2386 217.761 92 215 92ZM42 87C36.4772 87 32 91.4772 32 97V160C32 165.523 36.4772 170 42 170H215C220.523 170 225 165.523 225 160V97C225 91.4772 220.523 87 215 87H42Z" fill="#441105"/>
</svg>
