<svg width="256" height="256" viewBox="0 0 256 256" fill="none" xmlns="http://www.w3.org/2000/svg">
<path d="M62.76 105.2H59.04V115.592H59.016L50.976 105.2H47.832V122H51.552V111.656H51.576L59.592 122H62.76V105.2Z" fill="#441105"/>
<path d="M73.5874 104.84C68.5954 104.84 64.7314 108.344 64.7314 113.6C64.7314 118.856 68.5954 122.36 73.5874 122.36C78.5794 122.36 82.4434 118.856 82.4434 113.6C82.4434 108.344 78.5794 104.84 73.5874 104.84ZM73.5874 108.68C76.2754 108.68 78.3394 110.576 78.3394 113.6C78.3394 116.624 76.2754 118.52 73.5874 118.52C70.8994 118.52 68.8354 116.624 68.8354 113.6C68.8354 110.576 70.8994 108.68 73.5874 108.68Z" fill="#441105"/>
<path d="M101.588 122H105.74L99.1155 105.2H95.1795L88.5555 122H92.7315L93.9315 118.592H100.388L101.588 122ZM95.0835 115.28L97.1475 109.328L99.2355 115.28H95.0835Z" fill="#441105"/>
<path d="M115.652 122H120.308L115.508 115.448C118.1 114.848 119.42 112.928 119.42 110.456C119.42 107.528 117.476 105.2 113.708 105.2H106.988V122H110.708V115.64H111.428L115.652 122ZM110.708 108.584H113.156C114.644 108.584 115.484 109.304 115.484 110.552C115.484 111.944 114.644 112.52 113.156 112.52H110.708V108.584Z" fill="#441105"/>
<path d="M132.517 105.2H119.941V108.68H124.381V122H128.101V108.68H132.517V105.2Z" fill="#441105"/>
<path d="M137.825 105.2H134.105V122H137.825V105.2Z" fill="#441105"/>
<path d="M151.49 108.68V105.2H140.762V122H144.482V115.496H150.554V112.112H144.482V108.68H151.49Z" fill="#441105"/>
<path d="M156.833 105.2H153.113V122H156.833V105.2Z" fill="#441105"/>
<path d="M168.026 122.36C170.642 122.36 172.586 121.52 174.05 120.488L172.034 117.224C170.954 117.944 169.658 118.52 168.026 118.52C165.098 118.52 162.914 116.648 162.914 113.6C162.914 110.552 165.098 108.68 168.026 108.68C169.658 108.68 170.954 109.256 172.034 109.976L174.05 106.712C172.586 105.68 170.642 104.84 168.026 104.84C162.722 104.84 158.81 108.248 158.81 113.6C158.81 118.952 162.722 122.36 168.026 122.36Z" fill="#441105"/>
<path d="M179.497 105.2H175.777V122H179.497V105.2Z" fill="#441105"/>
<path d="M193.791 122H197.943L191.319 105.2H187.383L180.759 122H184.935L186.135 118.592H192.591L193.791 122ZM187.287 115.28L189.351 109.328L191.439 115.28H187.287Z" fill="#441105"/>
<path d="M202.911 105.2H199.191V122H209.607V118.496H202.911V105.2Z" fill="#441105"/>
<path d="M54.3697 153.18C55.6777 153.18 56.6497 152.76 57.3817 152.244L56.3737 150.612C55.8337 150.972 55.1857 151.26 54.3697 151.26C52.9057 151.26 51.8137 150.324 51.8137 148.8C51.8137 147.276 52.9057 146.34 54.3697 146.34C55.1857 146.34 55.8337 146.628 56.3737 146.988L57.3817 145.356C56.6497 144.84 55.6777 144.42 54.3697 144.42C51.7177 144.42 49.7617 146.124 49.7617 148.8C49.7617 151.476 51.7177 153.18 54.3697 153.18Z" fill="#441105"/>
<path d="M64.1586 144.42C61.6626 144.42 59.7306 146.172 59.7306 148.8C59.7306 151.428 61.6626 153.18 64.1586 153.18C66.6546 153.18 68.5866 151.428 68.5866 148.8C68.5866 146.172 66.6546 144.42 64.1586 144.42ZM64.1586 146.34C65.5026 146.34 66.5346 147.288 66.5346 148.8C66.5346 150.312 65.5026 151.26 64.1586 151.26C62.8146 151.26 61.7826 150.312 61.7826 148.8C61.7826 147.288 62.8146 146.34 64.1586 146.34Z" fill="#441105"/>
<path d="M73.7739 144.6H71.9139V153H77.1219V151.248H73.7739V144.6Z" fill="#441105"/>
<path d="M83.78 144.42C81.284 144.42 79.352 146.172 79.352 148.8C79.352 151.428 81.284 153.18 83.78 153.18C86.276 153.18 88.208 151.428 88.208 148.8C88.208 146.172 86.276 144.42 83.78 144.42ZM83.78 146.34C85.124 146.34 86.156 147.288 86.156 148.8C86.156 150.312 85.124 151.26 83.78 151.26C82.436 151.26 81.404 150.312 81.404 148.8C81.404 147.288 82.436 146.34 83.78 146.34Z" fill="#441105"/>
<path d="M95.8673 153H98.1953L95.7953 149.724C97.0913 149.424 97.7513 148.464 97.7513 147.228C97.7513 145.764 96.7793 144.6 94.8953 144.6H91.5353V153H93.3953V149.82H93.7553L95.8673 153ZM93.3953 146.292H94.6193C95.3633 146.292 95.7833 146.652 95.7833 147.276C95.7833 147.972 95.3633 148.26 94.6193 148.26H93.3953V146.292Z" fill="#441105"/>
<path d="M103.792 144.42C102.016 144.42 101.116 145.296 101.116 146.664C101.116 147.612 101.572 148.416 102.664 149.064L103.948 149.868C104.416 150.156 104.74 150.384 104.74 150.768C104.74 151.212 104.38 151.44 103.708 151.44C102.94 151.44 102.148 151.164 101.344 150.672L100.504 152.34C101.452 152.892 102.508 153.18 103.636 153.18C105.592 153.18 106.696 152.304 106.696 150.684C106.696 149.508 106.108 148.836 105.1 148.224L103.708 147.348C103.228 147.06 103.072 146.892 103.072 146.64C103.072 146.352 103.252 146.148 103.84 146.148C104.392 146.148 104.968 146.316 105.736 146.676L106.516 145.032C105.52 144.6 104.596 144.42 103.792 144.42Z" fill="#441105"/>
<path d="M119.472 144.42C116.976 144.42 115.044 146.172 115.044 148.8C115.044 151.428 116.976 153.18 119.472 153.18C121.968 153.18 123.9 151.428 123.9 148.8C123.9 146.172 121.968 144.42 119.472 144.42ZM119.472 146.34C120.816 146.34 121.848 147.288 121.848 148.8C121.848 150.312 120.816 151.26 119.472 151.26C118.128 151.26 117.096 150.312 117.096 148.8C117.096 147.288 118.128 146.34 119.472 146.34Z" fill="#441105"/>
<path d="M131.559 153H133.887L131.487 149.724C132.783 149.424 133.443 148.464 133.443 147.228C133.443 145.764 132.471 144.6 130.587 144.6H127.227V153H129.087V149.82H129.447L131.559 153ZM129.087 146.292H130.311C131.055 146.292 131.475 146.652 131.475 147.276C131.475 147.972 131.055 148.26 130.311 148.26H129.087V146.292Z" fill="#441105"/>
<path d="M147.83 146.34V144.6H142.466V153H144.326V149.748H147.362V148.056H144.326V146.34H147.83Z" fill="#441105"/>
<path d="M152.842 144.6H150.982V153H156.19V151.248H152.842V144.6Z" fill="#441105"/>
<path d="M165.235 153H167.311L163.999 144.6H162.031L158.719 153H160.807L161.407 151.296H164.635L165.235 153ZM161.983 149.64L163.015 146.664L164.059 149.64H161.983Z" fill="#441105"/>
<path d="M176.829 144.6H174.609L172.665 150.6H172.641L170.697 144.6H168.477L171.657 153H173.649L176.829 144.6Z" fill="#441105"/>
<path d="M183.313 144.42C180.817 144.42 178.885 146.172 178.885 148.8C178.885 151.428 180.817 153.18 183.313 153.18C185.809 153.18 187.741 151.428 187.741 148.8C187.741 146.172 185.809 144.42 183.313 144.42ZM183.313 146.34C184.657 146.34 185.689 147.288 185.689 148.8C185.689 150.312 184.657 151.26 183.313 151.26C181.969 151.26 180.937 150.312 180.937 148.8C180.937 147.288 181.969 146.34 183.313 146.34Z" fill="#441105"/>
<path d="M195.4 153H197.728L195.328 149.724C196.624 149.424 197.284 148.464 197.284 147.228C197.284 145.764 196.312 144.6 194.428 144.6H191.068V153H192.928V149.82H193.288L195.4 153ZM192.928 146.292H194.152C194.896 146.292 195.316 146.652 195.316 147.276C195.316 147.972 194.896 148.26 194.152 148.26H192.928V146.292Z" fill="#441105"/>
<path d="M203.325 144.42C201.549 144.42 200.649 145.296 200.649 146.664C200.649 147.612 201.105 148.416 202.197 149.064L203.481 149.868C203.949 150.156 204.273 150.384 204.273 150.768C204.273 151.212 203.913 151.44 203.241 151.44C202.473 151.44 201.681 151.164 200.877 150.672L200.037 152.34C200.985 152.892 202.041 153.18 203.169 153.18C205.125 153.18 206.229 152.304 206.229 150.684C206.229 149.508 205.641 148.836 204.633 148.224L203.241 147.348C202.761 147.06 202.605 146.892 202.605 146.64C202.605 146.352 202.785 146.148 203.373 146.148C203.925 146.148 204.501 146.316 205.269 146.676L206.049 145.032C205.053 144.6 204.129 144.42 203.325 144.42Z" fill="#441105"/>
<path fill-rule="evenodd" clip-rule="evenodd" d="M215 92H42C39.2386 92 37 94.2386 37 97V160C37 162.761 39.2386 165 42 165H215C217.761 165 220 162.761 220 160V97C220 94.2386 217.761 92 215 92ZM42 87C36.4772 87 32 91.4772 32 97V160C32 165.523 36.4772 170 42 170H215C220.523 170 225 165.523 225 160V97C225 91.4772 220.523 87 215 87H42Z" fill="#441105"/>
<path fill-rule="evenodd" clip-rule="evenodd" d="M211 135L45 135L45 132.5L211 132.5L211 135Z" fill="#441105"/>
</svg>
