<svg width="256" height="256" viewBox="0 0 256 256" fill="none" xmlns="http://www.w3.org/2000/svg">
<path d="M29.5254 176.875H30.0034L29.9658 178.378L31.3838 177.879L31.5288 178.33L30.0894 178.76L31.0024 179.958L30.6157 180.237L29.7671 178.996L28.9131 180.237L28.5264 179.958L29.4395 178.76L28 178.33L28.145 177.879L29.563 178.378L29.5254 176.875Z" fill="#441105"/>
<path d="M33.9699 177.707H34.84L36.6178 186H35.5114L35.1998 184.383H33.5563L33.2394 186H32.1652L33.9699 177.707ZM35.0387 183.519L34.7916 182.197C34.6269 181.299 34.4927 180.339 34.3888 179.318C34.3387 179.816 34.2742 180.321 34.1954 180.833C34.1167 181.341 34.0236 181.882 33.9162 182.455L33.7121 183.519H35.0387Z" fill="#441105"/>
<path d="M37.3885 177.707H38.7635C39.1824 177.707 39.5351 177.754 39.8216 177.847C40.0865 177.936 40.3229 178.096 40.5305 178.325C40.8421 178.668 41.0641 179.116 41.1966 179.667C41.3291 180.201 41.3953 180.965 41.3953 181.961C41.3953 182.874 41.3219 183.619 41.1751 184.195C41.0318 184.747 40.7955 185.167 40.4661 185.458C40.0615 185.819 39.3364 186 38.2908 186H37.3885V177.707ZM38.5056 185.022C39.186 185.022 39.6407 184.817 39.8699 184.405C40.1062 183.993 40.2244 183.193 40.2244 182.004C40.2244 180.726 40.1116 179.847 39.886 179.367C39.6604 178.887 39.2469 178.647 38.6453 178.647H38.5056V185.022Z" fill="#441105"/>
<path d="M42.6225 177.707H43.9975C44.4164 177.707 44.7691 177.754 45.0556 177.847C45.3206 177.936 45.5569 178.096 45.7646 178.325C46.0761 178.668 46.2981 179.116 46.4306 179.667C46.5631 180.201 46.6293 180.965 46.6293 181.961C46.6293 182.874 46.5559 183.619 46.4091 184.195C46.2659 184.747 46.0295 185.167 45.7001 185.458C45.2955 185.819 44.5704 186 43.5248 186H42.6225V177.707ZM43.7397 185.022C44.42 185.022 44.8748 184.817 45.1039 184.405C45.3403 183.993 45.4584 183.193 45.4584 182.004C45.4584 180.726 45.3456 179.847 45.12 179.367C44.8945 178.887 44.4809 178.647 43.8793 178.647H43.7397V185.022Z" fill="#441105"/>
<path d="M47.8565 177.707H50.8267V178.652H48.9737V181.279H50.6172V182.224H48.9737V185.055H50.8267V186H47.8565V177.707Z" fill="#441105"/>
<path d="M51.9626 177.707H53.3376C53.7565 177.707 54.1092 177.754 54.3957 177.847C54.6607 177.936 54.897 178.096 55.1047 178.325C55.4162 178.668 55.6382 179.116 55.7707 179.667C55.9032 180.201 55.9694 180.965 55.9694 181.961C55.9694 182.874 55.896 183.619 55.7492 184.195C55.606 184.747 55.3697 185.167 55.0402 185.458C54.6356 185.819 53.9105 186 52.8649 186H51.9626V177.707ZM53.0798 185.022C53.7601 185.022 54.2149 184.817 54.444 184.405C54.6804 183.993 54.7985 183.193 54.7985 182.004C54.7985 180.726 54.6857 179.847 54.4602 179.367C54.2346 178.887 53.821 178.647 53.2194 178.647H53.0798V185.022Z" fill="#441105"/>
<path d="M62.8388 177.841V178.846C62.5524 178.706 62.3125 178.636 62.1191 178.636C61.8541 178.636 61.6268 178.702 61.437 178.835C61.2472 178.964 61.0897 179.164 60.9643 179.437C60.8426 179.709 60.7513 180.054 60.6904 180.473C60.6331 180.889 60.6045 181.381 60.6045 181.95C60.6045 183.998 61.1291 185.022 62.1782 185.022C62.3608 185.022 62.581 184.965 62.8388 184.851V185.876C62.5703 186.027 62.2695 186.102 61.9365 186.102C60.2571 186.102 59.4175 184.731 59.4175 181.988C59.4175 180.505 59.6216 179.403 60.0298 178.679C60.4416 177.956 61.07 177.594 61.915 177.594C62.2265 177.594 62.5345 177.677 62.8388 177.841Z" fill="#441105"/>
<path d="M67.9816 182.058C67.9816 183.522 67.8186 184.562 67.4928 185.178C67.1669 185.794 66.6209 186.102 65.8546 186.102C65.0489 186.102 64.4814 185.771 64.152 185.108C63.8261 184.46 63.6632 183.309 63.6632 181.655C63.6632 180.18 63.8243 179.136 64.1466 178.523C64.4725 177.908 65.0239 177.6 65.8009 177.6C66.4956 177.6 67.0112 177.838 67.3478 178.314C67.5698 178.633 67.7309 179.086 67.8312 179.673C67.9314 180.217 67.9816 181.012 67.9816 182.058ZM66.8107 182.176C66.8107 180.74 66.7462 179.787 66.6173 179.318C66.4884 178.846 66.2252 178.609 65.8278 178.609C65.4303 178.609 65.1653 178.826 65.0328 179.259C64.9039 179.696 64.8395 180.573 64.8395 181.891C64.8395 183.105 64.9075 183.946 65.0436 184.416C65.1832 184.86 65.4446 185.082 65.8278 185.082C66.2037 185.082 66.4615 184.874 66.6012 184.458C66.7408 184.047 66.8107 183.286 66.8107 182.176Z" fill="#441105"/>
<path d="M69.2034 177.707H70.3206V185.055H72.1467V186H69.2034V177.707Z" fill="#441105"/>
<path d="M77.1068 182.058C77.1068 183.522 76.9439 184.562 76.6181 185.178C76.2922 185.794 75.7462 186.102 74.9799 186.102C74.1742 186.102 73.6067 185.771 73.2772 185.108C72.9514 184.46 72.7885 183.309 72.7885 181.655C72.7885 180.18 72.9496 179.136 73.2719 178.523C73.5977 177.908 74.1492 177.6 74.9262 177.6C75.6208 177.6 76.1365 177.838 76.473 178.314C76.695 178.633 76.8562 179.086 76.9564 179.673C77.0567 180.217 77.1068 181.012 77.1068 182.058ZM75.9359 182.176C75.9359 180.74 75.8715 179.787 75.7426 179.318C75.6137 178.846 75.3505 178.609 74.953 178.609C74.5556 178.609 74.2906 178.826 74.1581 179.259C74.0292 179.696 73.9647 180.573 73.9647 181.891C73.9647 183.105 74.0328 183.946 74.1688 184.416C74.3085 184.86 74.5699 185.082 74.953 185.082C75.329 185.082 75.5868 184.874 75.7265 184.458C75.8661 184.047 75.9359 183.286 75.9359 182.176Z" fill="#441105"/>
<path d="M78.3287 177.707H79.8003C80.4091 177.707 80.862 177.852 81.1592 178.142C81.5352 178.518 81.7232 179.093 81.7232 179.866C81.7232 180.461 81.6229 180.939 81.4224 181.3C81.2255 181.658 80.9426 181.88 80.5738 181.966L82.0992 186H80.9659L79.4458 181.939V186H78.3287V177.707ZM79.4458 181.381C79.8791 181.381 80.1853 181.281 80.3643 181.08C80.5433 180.88 80.6329 180.541 80.6329 180.065C80.6329 179.807 80.6132 179.587 80.5738 179.404C80.538 179.222 80.4789 179.073 80.3965 178.958C80.3177 178.844 80.2139 178.76 80.085 178.706C79.9597 178.652 79.8093 178.625 79.6338 178.625H79.4458V181.381Z" fill="#441105"/>
<path d="M85.8454 177.879V178.969C85.5052 178.726 85.1991 178.604 84.9269 178.604C84.6333 178.604 84.3934 178.708 84.2072 178.916C84.021 179.112 83.9279 179.376 83.9279 179.705C83.9279 179.995 83.9942 180.244 84.1266 180.452C84.1947 180.563 84.3057 180.706 84.4596 180.881C84.6172 181.057 84.8195 181.268 85.0666 181.515C85.5213 181.977 85.8311 182.376 85.9958 182.713C86.1605 183.039 86.2429 183.438 86.2429 183.911C86.2429 184.552 86.062 185.08 85.7004 185.495C85.3387 185.9 84.875 186.102 84.3093 186.102C83.833 186.102 83.4266 185.971 83.09 185.71V184.604C83.4875 184.894 83.8491 185.039 84.175 185.039C84.4793 185.039 84.7175 184.938 84.8893 184.738C85.0612 184.534 85.1471 184.258 85.1471 183.911C85.1471 183.61 85.0809 183.34 84.9484 183.1C84.8804 182.985 84.7855 182.854 84.6637 182.708C84.542 182.557 84.3898 182.391 84.2072 182.208C83.9243 181.929 83.6898 181.682 83.5036 181.467C83.3174 181.252 83.1795 181.064 83.09 180.903C82.9181 180.588 82.8322 180.19 82.8322 179.71C82.8322 179.062 83.0005 178.549 83.3371 178.169C83.6773 177.786 84.1338 177.594 84.7067 177.594C85.1042 177.594 85.4837 177.689 85.8454 177.879Z" fill="#441105"/>
<path d="M90.8618 177.707H91.7319L93.5097 186H92.4033L92.0918 184.383H90.4482L90.1313 186H89.0571L90.8618 177.707ZM91.9306 183.519L91.6836 182.197C91.5188 181.299 91.3846 180.339 91.2807 179.318C91.2306 179.816 91.1661 180.321 91.0874 180.833C91.0086 181.341 90.9155 181.882 90.8081 182.455L90.604 183.519H91.9306Z" fill="#441105"/>
<path d="M94.2804 177.707H95.3224L96.4342 181.016C96.7564 181.95 97.0411 182.947 97.2882 184.007C97.1987 183.366 97.1324 182.786 97.0895 182.267C97.0465 181.748 97.025 181.259 97.025 180.801V177.707H98.1476V186H97.1002L95.8487 182.267C95.7341 181.92 95.6249 181.563 95.5211 181.198C95.4208 180.833 95.3277 180.45 95.2418 180.049C95.2346 179.999 95.2221 179.938 95.2042 179.866C95.1899 179.795 95.172 179.712 95.1505 179.619C95.1612 179.712 95.1702 179.793 95.1773 179.861C95.1845 179.925 95.1899 179.981 95.1935 180.027L95.2525 180.871L95.3116 181.896C95.3152 181.954 95.317 182.024 95.317 182.106C95.3206 182.188 95.3224 182.281 95.3224 182.385L95.3814 186H94.2804V177.707Z" fill="#441105"/>
<path d="M99.5359 177.707H100.911C101.33 177.707 101.683 177.754 101.969 177.847C102.234 177.936 102.47 178.096 102.678 178.325C102.989 178.668 103.212 179.116 103.344 179.667C103.476 180.201 103.543 180.965 103.543 181.961C103.543 182.874 103.469 183.619 103.323 184.195C103.179 184.747 102.943 185.167 102.614 185.458C102.209 185.819 101.484 186 100.438 186H99.5359V177.707ZM100.653 185.022C101.333 185.022 101.788 184.817 102.017 184.405C102.254 183.993 102.372 183.193 102.372 182.004C102.372 180.726 102.259 179.847 102.033 179.367C101.808 178.887 101.394 178.647 100.793 178.647H100.653V185.022Z" fill="#441105"/>
<path d="M107.157 177.707H110.144V178.652H108.274V181.273H109.961V182.219H108.274V186H107.157V177.707Z" fill="#441105"/>
<path d="M111.113 177.707H112.23V185.055H114.056V186H111.113V177.707Z" fill="#441105"/>
<path d="M116.487 177.707H117.357L119.135 186H118.028L117.717 184.383H116.073L115.756 186H114.682L116.487 177.707ZM117.555 183.519L117.308 182.197C117.144 181.299 117.009 180.339 116.906 179.318C116.855 179.816 116.791 180.321 116.712 180.833C116.633 181.341 116.54 181.882 116.433 182.455L116.229 183.519H117.555Z" fill="#441105"/>
<path d="M119.051 177.707H120.152L120.652 180.769L120.738 181.322L120.915 182.525C120.944 182.729 120.969 182.915 120.99 183.083C121.015 183.252 121.037 183.404 121.055 183.54L121.108 183.948C121.119 183.866 121.128 183.792 121.135 183.728C121.142 183.664 121.15 183.61 121.157 183.567L121.302 182.605L121.49 181.343C121.508 181.229 121.524 181.123 121.538 181.026C121.556 180.93 121.572 180.844 121.586 180.769L122.123 177.707H123.165L121.538 186H120.652L119.051 177.707Z" fill="#441105"/>
<path d="M128.056 182.058C128.056 183.522 127.893 184.562 127.567 185.178C127.241 185.794 126.695 186.102 125.929 186.102C125.123 186.102 124.556 185.771 124.226 185.108C123.9 184.46 123.737 183.309 123.737 181.655C123.737 180.18 123.899 179.136 124.221 178.523C124.547 177.908 125.098 177.6 125.875 177.6C126.57 177.6 127.085 177.838 127.422 178.314C127.644 178.633 127.805 179.086 127.905 179.673C128.006 180.217 128.056 181.012 128.056 182.058ZM126.885 182.176C126.885 180.74 126.82 179.787 126.691 179.318C126.563 178.846 126.299 178.609 125.902 178.609C125.504 178.609 125.239 178.826 125.107 179.259C124.978 179.696 124.914 180.573 124.914 181.891C124.914 183.105 124.982 183.946 125.118 184.416C125.257 184.86 125.519 185.082 125.902 185.082C126.278 185.082 126.536 184.874 126.675 184.458C126.815 184.047 126.885 183.286 126.885 182.176Z" fill="#441105"/>
<path d="M129.278 177.707H130.749C131.358 177.707 131.811 177.852 132.108 178.142C132.484 178.518 132.672 179.093 132.672 179.866C132.672 180.461 132.572 180.939 132.371 181.3C132.174 181.658 131.891 181.88 131.523 181.966L133.048 186H131.915L130.395 181.939V186H129.278V177.707ZM130.395 181.381C130.828 181.381 131.134 181.281 131.313 181.08C131.492 180.88 131.582 180.541 131.582 180.065C131.582 179.807 131.562 179.587 131.523 179.404C131.487 179.222 131.428 179.073 131.345 178.958C131.267 178.844 131.163 178.76 131.034 178.706C130.909 178.652 130.758 178.625 130.583 178.625H130.395V181.381Z" fill="#441105"/>
<path d="M136.794 177.879V178.969C136.454 178.726 136.148 178.604 135.876 178.604C135.582 178.604 135.342 178.708 135.156 178.916C134.97 179.112 134.877 179.376 134.877 179.705C134.877 179.995 134.943 180.244 135.076 180.452C135.144 180.563 135.255 180.706 135.409 180.881C135.566 181.057 135.768 181.268 136.015 181.515C136.47 181.977 136.78 182.376 136.945 182.713C137.109 183.039 137.192 183.438 137.192 183.911C137.192 184.552 137.011 185.08 136.649 185.495C136.288 185.9 135.824 186.102 135.258 186.102C134.782 186.102 134.376 185.971 134.039 185.71V184.604C134.436 184.894 134.798 185.039 135.124 185.039C135.428 185.039 135.666 184.938 135.838 184.738C136.01 184.534 136.096 184.258 136.096 183.911C136.096 183.61 136.03 183.34 135.897 183.1C135.829 182.985 135.734 182.854 135.613 182.708C135.491 182.557 135.339 182.391 135.156 182.208C134.873 181.929 134.639 181.682 134.452 181.467C134.266 181.252 134.128 181.064 134.039 180.903C133.867 180.588 133.781 180.19 133.781 179.71C133.781 179.062 133.949 178.549 134.286 178.169C134.626 177.786 135.083 177.594 135.656 177.594C136.053 177.594 136.433 177.689 136.794 177.879Z" fill="#441105"/>
<path d="M140.629 177.707H143.615V178.652H141.746V181.273H143.433V182.219H141.746V186H140.629V177.707Z" fill="#441105"/>
<path d="M144.585 177.707H146.056C146.665 177.707 147.118 177.852 147.415 178.142C147.791 178.518 147.979 179.093 147.979 179.866C147.979 180.461 147.879 180.939 147.678 181.3C147.482 181.658 147.199 181.88 146.83 181.966L148.355 186H147.222L145.702 181.939V186H144.585V177.707ZM145.702 181.381C146.135 181.381 146.441 181.281 146.62 181.08C146.799 180.88 146.889 180.541 146.889 180.065C146.889 179.807 146.869 179.587 146.83 179.404C146.794 179.222 146.735 179.073 146.653 178.958C146.574 178.844 146.47 178.76 146.341 178.706C146.216 178.652 146.065 178.625 145.89 178.625H145.702V181.381Z" fill="#441105"/>
<path d="M153.391 182.058C153.391 183.522 153.228 184.562 152.902 185.178C152.576 185.794 152.03 186.102 151.264 186.102C150.458 186.102 149.89 185.771 149.561 185.108C149.235 184.46 149.072 183.309 149.072 181.655C149.072 180.18 149.233 179.136 149.556 178.523C149.881 177.908 150.433 177.6 151.21 177.6C151.905 177.6 152.42 177.838 152.757 178.314C152.979 178.633 153.14 179.086 153.24 179.673C153.34 180.217 153.391 181.012 153.391 182.058ZM152.22 182.176C152.22 180.74 152.155 179.787 152.026 179.318C151.897 178.846 151.634 178.609 151.237 178.609C150.839 178.609 150.574 178.826 150.442 179.259C150.313 179.696 150.248 180.573 150.248 181.891C150.248 183.105 150.316 183.946 150.453 184.416C150.592 184.86 150.854 185.082 151.237 185.082C151.613 185.082 151.871 184.874 152.01 184.458C152.15 184.047 152.22 183.286 152.22 182.176Z" fill="#441105"/>
<path d="M155.004 177.707H155.961L156.691 181.091C156.781 181.513 156.861 181.938 156.933 182.364C157.008 182.786 157.076 183.23 157.137 183.696C157.144 183.635 157.149 183.588 157.153 183.556C157.156 183.52 157.16 183.495 157.164 183.481L157.319 182.53L157.459 181.628L157.583 181.032L158.232 177.707H159.199L159.962 186H158.893L158.705 183.186C158.698 183.042 158.691 182.919 158.684 182.815C158.68 182.711 158.678 182.625 158.678 182.557L158.63 181.445L158.603 180.425C158.603 180.418 158.601 180.403 158.598 180.382C158.598 180.357 158.596 180.325 158.592 180.285L158.565 180.452C158.537 180.649 158.51 180.82 158.485 180.967C158.463 181.114 158.444 181.238 158.426 181.338L158.286 182.095L158.232 182.38L157.534 186H156.782L156.127 182.874C156.037 182.462 155.957 182.045 155.885 181.623C155.817 181.196 155.755 180.751 155.697 180.285L155.375 186H154.322L155.004 177.707Z" fill="#441105"/>
<path d="M163.383 177.707H164.425L165.537 181.016C165.859 181.95 166.144 182.947 166.391 184.007C166.301 183.366 166.235 182.786 166.192 182.267C166.149 181.748 166.128 181.259 166.128 180.801V177.707H167.25V186H166.203L164.952 182.267C164.837 181.92 164.728 181.563 164.624 181.198C164.524 180.833 164.431 180.45 164.345 180.049C164.337 179.999 164.325 179.938 164.307 179.866C164.293 179.795 164.275 179.712 164.253 179.619C164.264 179.712 164.273 179.793 164.28 179.861C164.287 179.925 164.293 179.981 164.296 180.027L164.355 180.871L164.414 181.896C164.418 181.954 164.42 182.024 164.42 182.106C164.423 182.188 164.425 182.281 164.425 182.385L164.484 186H163.383V177.707Z" fill="#441105"/>
<path d="M169.981 177.707H170.852L172.629 186H171.523L171.211 184.383H169.568L169.251 186H168.177L169.981 177.707ZM171.05 183.519L170.803 182.197C170.639 181.299 170.504 180.339 170.4 179.318C170.35 179.816 170.286 180.321 170.207 180.833C170.128 181.341 170.035 181.882 169.928 182.455L169.724 183.519H171.05Z" fill="#441105"/>
<path d="M172.557 177.707H176.193V178.685H174.942V186H173.846V178.685H172.557V177.707Z" fill="#441105"/>
<path d="M176.926 177.707H178.022V183.567C178.022 184.165 178.075 184.562 178.183 184.759C178.294 184.956 178.512 185.055 178.838 185.055C179.164 185.055 179.379 184.969 179.483 184.797C179.59 184.621 179.644 184.265 179.644 183.728V177.707H180.74V183.728C180.74 184.63 180.602 185.241 180.326 185.56C179.997 185.921 179.493 186.102 178.817 186.102C178.072 186.102 177.547 185.869 177.243 185.404C177.032 185.085 176.926 184.473 176.926 183.567V177.707Z" fill="#441105"/>
<path d="M182.128 177.707H183.6C184.208 177.707 184.661 177.852 184.958 178.142C185.334 178.518 185.522 179.093 185.522 179.866C185.522 180.461 185.422 180.939 185.222 181.3C185.025 181.658 184.742 181.88 184.373 181.966L185.898 186H184.765L183.245 181.939V186H182.128V177.707ZM183.245 181.381C183.678 181.381 183.984 181.281 184.163 181.08C184.343 180.88 184.432 180.541 184.432 180.065C184.432 179.807 184.412 179.587 184.373 179.404C184.337 179.222 184.278 179.073 184.196 178.958C184.117 178.844 184.013 178.76 183.884 178.706C183.759 178.652 183.608 178.625 183.433 178.625H183.245V181.381Z" fill="#441105"/>
<path d="M188.06 177.707H188.93L190.708 186H189.602L189.29 184.383H187.647L187.33 186H186.255L188.06 177.707ZM189.129 183.519L188.882 182.197C188.717 181.299 188.583 180.339 188.479 179.318C188.429 179.816 188.364 180.321 188.286 180.833C188.207 181.341 188.114 181.882 188.006 182.455L187.802 183.519H189.129Z" fill="#441105"/>
<path d="M191.479 177.707H192.596V185.055H194.422V186H191.479V177.707Z" fill="#441105"/>
<path d="M200.384 177.879V178.969C200.044 178.726 199.737 178.604 199.465 178.604C199.172 178.604 198.932 178.708 198.746 178.916C198.559 179.112 198.466 179.376 198.466 179.705C198.466 179.995 198.533 180.244 198.665 180.452C198.733 180.563 198.844 180.706 198.998 180.881C199.156 181.057 199.358 181.268 199.605 181.515C200.06 181.977 200.369 182.376 200.534 182.713C200.699 183.039 200.781 183.438 200.781 183.911C200.781 184.552 200.6 185.08 200.239 185.495C199.877 185.9 199.413 186.102 198.848 186.102C198.371 186.102 197.965 185.971 197.628 185.71V184.604C198.026 184.894 198.387 185.039 198.713 185.039C199.018 185.039 199.256 184.938 199.428 184.738C199.6 184.534 199.686 184.258 199.686 183.911C199.686 183.61 199.619 183.34 199.487 183.1C199.419 182.985 199.324 182.854 199.202 182.708C199.08 182.557 198.928 182.391 198.746 182.208C198.463 181.929 198.228 181.682 198.042 181.467C197.856 181.252 197.718 181.064 197.628 180.903C197.457 180.588 197.371 180.19 197.371 179.71C197.371 179.062 197.539 178.549 197.875 178.169C198.216 177.786 198.672 177.594 199.245 177.594C199.643 177.594 200.022 177.689 200.384 177.879Z" fill="#441105"/>
<path d="M205.983 182.058C205.983 183.522 205.82 184.562 205.494 185.178C205.168 185.794 204.622 186.102 203.856 186.102C203.05 186.102 202.483 185.771 202.153 185.108C201.828 184.46 201.665 183.309 201.665 181.655C201.665 180.18 201.826 179.136 202.148 178.523C202.474 177.908 203.025 177.6 203.802 177.6C204.497 177.6 205.013 177.838 205.349 178.314C205.571 178.633 205.732 179.086 205.833 179.673C205.933 180.217 205.983 181.012 205.983 182.058ZM204.812 182.176C204.812 180.74 204.748 179.787 204.619 179.318C204.49 178.846 204.227 178.609 203.829 178.609C203.432 178.609 203.167 178.826 203.034 179.259C202.905 179.696 202.841 180.573 202.841 181.891C202.841 183.105 202.909 183.946 203.045 184.416C203.185 184.86 203.446 185.082 203.829 185.082C204.205 185.082 204.463 184.874 204.603 184.458C204.742 184.047 204.812 183.286 204.812 182.176Z" fill="#441105"/>
<path d="M207.205 177.707H208.301V183.567C208.301 184.165 208.354 184.562 208.462 184.759C208.573 184.956 208.791 185.055 209.117 185.055C209.443 185.055 209.658 184.969 209.761 184.797C209.869 184.621 209.923 184.265 209.923 183.728V177.707H211.018V183.728C211.018 184.63 210.88 185.241 210.605 185.56C210.275 185.921 209.772 186.102 209.095 186.102C208.351 186.102 207.826 185.869 207.522 185.404C207.31 185.085 207.205 184.473 207.205 183.567V177.707Z" fill="#441105"/>
<path d="M212.407 177.707H213.878C214.487 177.707 214.94 177.852 215.237 178.142C215.613 178.518 215.801 179.093 215.801 179.866C215.801 180.461 215.701 180.939 215.5 181.3C215.303 181.658 215.021 181.88 214.652 181.966L216.177 186H215.044L213.524 181.939V186H212.407V177.707ZM213.524 181.381C213.957 181.381 214.263 181.281 214.442 181.08C214.621 180.88 214.711 180.541 214.711 180.065C214.711 179.807 214.691 179.587 214.652 179.404C214.616 179.222 214.557 179.073 214.474 178.958C214.396 178.844 214.292 178.76 214.163 178.706C214.038 178.652 213.887 178.625 213.712 178.625H213.524V181.381Z" fill="#441105"/>
<path d="M220.283 177.841V178.846C219.997 178.706 219.757 178.636 219.564 178.636C219.299 178.636 219.071 178.702 218.881 178.835C218.692 178.964 218.534 179.164 218.409 179.437C218.287 179.709 218.196 180.054 218.135 180.473C218.077 180.889 218.049 181.381 218.049 181.95C218.049 183.998 218.573 185.022 219.623 185.022C219.805 185.022 220.025 184.965 220.283 184.851V185.876C220.015 186.027 219.714 186.102 219.381 186.102C217.702 186.102 216.862 184.731 216.862 181.988C216.862 180.505 217.066 179.403 217.474 178.679C217.886 177.956 218.514 177.594 219.359 177.594C219.671 177.594 219.979 177.677 220.283 177.841Z" fill="#441105"/>
<path d="M221.339 177.707H224.309V178.652H222.456V181.279H224.099V182.224H222.456V185.055H224.309V186H221.339V177.707Z" fill="#441105"/>
<path d="M228.211 177.879V178.969C227.871 178.726 227.564 178.604 227.292 178.604C226.999 178.604 226.759 178.708 226.573 178.916C226.386 179.112 226.293 179.376 226.293 179.705C226.293 179.995 226.36 180.244 226.492 180.452C226.56 180.563 226.671 180.706 226.825 180.881C226.983 181.057 227.185 181.268 227.432 181.515C227.887 181.977 228.196 182.376 228.361 182.713C228.526 183.039 228.608 183.438 228.608 183.911C228.608 184.552 228.427 185.08 228.066 185.495C227.704 185.9 227.24 186.102 226.675 186.102C226.198 186.102 225.792 185.971 225.455 185.71V184.604C225.853 184.894 226.214 185.039 226.54 185.039C226.845 185.039 227.083 184.938 227.255 184.738C227.427 184.534 227.513 184.258 227.513 183.911C227.513 183.61 227.446 183.34 227.314 183.1C227.246 182.985 227.151 182.854 227.029 182.708C226.907 182.557 226.755 182.391 226.573 182.208C226.29 181.929 226.055 181.682 225.869 181.467C225.683 181.252 225.545 181.064 225.455 180.903C225.284 180.588 225.198 180.19 225.198 179.71C225.198 179.062 225.366 178.549 225.702 178.169C226.043 177.786 226.499 177.594 227.072 177.594C227.47 177.594 227.849 177.689 228.211 177.879Z" fill="#441105"/>
<path d="M62.9553 105.2H59.2353V115.592H59.2113L51.1713 105.2H48.0273V122H51.7473V111.656H51.7713L59.7873 122H62.9553V105.2Z" fill="#441105"/>
<path d="M73.7827 104.84C68.7907 104.84 64.9267 108.344 64.9267 113.6C64.9267 118.856 68.7907 122.36 73.7827 122.36C78.7747 122.36 82.6387 118.856 82.6387 113.6C82.6387 108.344 78.7747 104.84 73.7827 104.84ZM73.7827 108.68C76.4707 108.68 78.5347 110.576 78.5347 113.6C78.5347 116.624 76.4707 118.52 73.7827 118.52C71.0947 118.52 69.0307 116.624 69.0307 113.6C69.0307 110.576 71.0947 108.68 73.7827 108.68Z" fill="#441105"/>
<path d="M101.783 122H105.935L99.3108 105.2H95.3748L88.7508 122H92.9268L94.1268 118.592H100.583L101.783 122ZM95.2788 115.28L97.3428 109.328L99.4308 115.28H95.2788Z" fill="#441105"/>
<path d="M115.848 122H120.504L115.704 115.448C118.296 114.848 119.616 112.928 119.616 110.456C119.616 107.528 117.672 105.2 113.904 105.2H107.184V122H110.904V115.64H111.624L115.848 122ZM110.904 108.584H113.352C114.84 108.584 115.68 109.304 115.68 110.552C115.68 111.944 114.84 112.52 113.352 112.52H110.904V108.584Z" fill="#441105"/>
<path d="M132.712 105.2H120.136V108.68H124.576V122H128.296V108.68H132.712V105.2Z" fill="#441105"/>
<path d="M138.021 105.2H134.301V122H138.021V105.2Z" fill="#441105"/>
<path d="M151.685 108.68V105.2H140.957V122H144.677V115.496H150.749V112.112H144.677V108.68H151.685Z" fill="#441105"/>
<path d="M157.029 105.2H153.309V122H157.029V105.2Z" fill="#441105"/>
<path d="M168.221 122.36C170.837 122.36 172.781 121.52 174.245 120.488L172.229 117.224C171.149 117.944 169.853 118.52 168.221 118.52C165.293 118.52 163.109 116.648 163.109 113.6C163.109 110.552 165.293 108.68 168.221 108.68C169.853 108.68 171.149 109.256 172.229 109.976L174.245 106.712C172.781 105.68 170.837 104.84 168.221 104.84C162.917 104.84 159.005 108.248 159.005 113.6C159.005 118.952 162.917 122.36 168.221 122.36Z" fill="#441105"/>
<path d="M179.693 105.2H175.973V122H179.693V105.2Z" fill="#441105"/>
<path d="M193.986 122H198.138L191.514 105.2H187.578L180.954 122H185.13L186.33 118.592H192.786L193.986 122ZM187.482 115.28L189.546 109.328L191.634 115.28H187.482Z" fill="#441105"/>
<path d="M203.107 105.2H199.387V122H209.803V118.496H203.107V105.2Z" fill="#441105"/>
<path d="M54.565 153.18C55.873 153.18 56.845 152.76 57.577 152.244L56.569 150.612C56.029 150.972 55.381 151.26 54.565 151.26C53.101 151.26 52.009 150.324 52.009 148.8C52.009 147.276 53.101 146.34 54.565 146.34C55.381 146.34 56.029 146.628 56.569 146.988L57.577 145.356C56.845 144.84 55.873 144.42 54.565 144.42C51.913 144.42 49.957 146.124 49.957 148.8C49.957 151.476 51.913 153.18 54.565 153.18Z" fill="#441105"/>
<path d="M64.3539 144.42C61.8579 144.42 59.9259 146.172 59.9259 148.8C59.9259 151.428 61.8579 153.18 64.3539 153.18C66.8499 153.18 68.7819 151.428 68.7819 148.8C68.7819 146.172 66.8499 144.42 64.3539 144.42ZM64.3539 146.34C65.6979 146.34 66.7299 147.288 66.7299 148.8C66.7299 150.312 65.6979 151.26 64.3539 151.26C63.0099 151.26 61.9779 150.312 61.9779 148.8C61.9779 147.288 63.0099 146.34 64.3539 146.34Z" fill="#441105"/>
<path d="M73.9692 144.6H72.1092V153H77.3172V151.248H73.9692V144.6Z" fill="#441105"/>
<path d="M83.9753 144.42C81.4793 144.42 79.5473 146.172 79.5473 148.8C79.5473 151.428 81.4793 153.18 83.9753 153.18C86.4713 153.18 88.4033 151.428 88.4033 148.8C88.4033 146.172 86.4713 144.42 83.9753 144.42ZM83.9753 146.34C85.3193 146.34 86.3513 147.288 86.3513 148.8C86.3513 150.312 85.3193 151.26 83.9753 151.26C82.6313 151.26 81.5993 150.312 81.5993 148.8C81.5993 147.288 82.6313 146.34 83.9753 146.34Z" fill="#441105"/>
<path d="M96.0626 153H98.3906L95.9906 149.724C97.2866 149.424 97.9466 148.464 97.9466 147.228C97.9466 145.764 96.9746 144.6 95.0906 144.6H91.7306V153H93.5906V149.82H93.9506L96.0626 153ZM93.5906 146.292H94.8146C95.5586 146.292 95.9786 146.652 95.9786 147.276C95.9786 147.972 95.5586 148.26 94.8146 148.26H93.5906V146.292Z" fill="#441105"/>
<path d="M103.988 144.42C102.212 144.42 101.312 145.296 101.312 146.664C101.312 147.612 101.768 148.416 102.86 149.064L104.144 149.868C104.612 150.156 104.936 150.384 104.936 150.768C104.936 151.212 104.576 151.44 103.904 151.44C103.136 151.44 102.344 151.164 101.54 150.672L100.7 152.34C101.648 152.892 102.704 153.18 103.832 153.18C105.788 153.18 106.892 152.304 106.892 150.684C106.892 149.508 106.304 148.836 105.296 148.224L103.904 147.348C103.424 147.06 103.268 146.892 103.268 146.64C103.268 146.352 103.448 146.148 104.036 146.148C104.588 146.148 105.164 146.316 105.932 146.676L106.712 145.032C105.716 144.6 104.792 144.42 103.988 144.42Z" fill="#441105"/>
<path d="M119.667 144.42C117.171 144.42 115.239 146.172 115.239 148.8C115.239 151.428 117.171 153.18 119.667 153.18C122.163 153.18 124.095 151.428 124.095 148.8C124.095 146.172 122.163 144.42 119.667 144.42ZM119.667 146.34C121.011 146.34 122.043 147.288 122.043 148.8C122.043 150.312 121.011 151.26 119.667 151.26C118.323 151.26 117.291 150.312 117.291 148.8C117.291 147.288 118.323 146.34 119.667 146.34Z" fill="#441105"/>
<path d="M131.755 153H134.083L131.683 149.724C132.979 149.424 133.639 148.464 133.639 147.228C133.639 145.764 132.667 144.6 130.783 144.6H127.423V153H129.283V149.82H129.643L131.755 153ZM129.283 146.292H130.507C131.251 146.292 131.671 146.652 131.671 147.276C131.671 147.972 131.251 148.26 130.507 148.26H129.283V146.292Z" fill="#441105"/>
<path d="M148.025 146.34V144.6H142.661V153H144.521V149.748H147.557V148.056H144.521V146.34H148.025Z" fill="#441105"/>
<path d="M153.037 144.6H151.177V153H156.385V151.248H153.037V144.6Z" fill="#441105"/>
<path d="M165.43 153H167.506L164.194 144.6H162.226L158.914 153H161.002L161.602 151.296H164.83L165.43 153ZM162.178 149.64L163.21 146.664L164.254 149.64H162.178Z" fill="#441105"/>
<path d="M177.024 144.6H174.804L172.86 150.6H172.836L170.892 144.6H168.672L171.852 153H173.844L177.024 144.6Z" fill="#441105"/>
<path d="M183.508 144.42C181.012 144.42 179.08 146.172 179.08 148.8C179.08 151.428 181.012 153.18 183.508 153.18C186.004 153.18 187.936 151.428 187.936 148.8C187.936 146.172 186.004 144.42 183.508 144.42ZM183.508 146.34C184.852 146.34 185.884 147.288 185.884 148.8C185.884 150.312 184.852 151.26 183.508 151.26C182.164 151.26 181.132 150.312 181.132 148.8C181.132 147.288 182.164 146.34 183.508 146.34Z" fill="#441105"/>
<path d="M195.596 153H197.924L195.524 149.724C196.82 149.424 197.48 148.464 197.48 147.228C197.48 145.764 196.508 144.6 194.624 144.6H191.264V153H193.124V149.82H193.484L195.596 153ZM193.124 146.292H194.348C195.092 146.292 195.512 146.652 195.512 147.276C195.512 147.972 195.092 148.26 194.348 148.26H193.124V146.292Z" fill="#441105"/>
<path d="M203.521 144.42C201.745 144.42 200.845 145.296 200.845 146.664C200.845 147.612 201.301 148.416 202.393 149.064L203.677 149.868C204.145 150.156 204.469 150.384 204.469 150.768C204.469 151.212 204.109 151.44 203.437 151.44C202.669 151.44 201.877 151.164 201.073 150.672L200.233 152.34C201.181 152.892 202.237 153.18 203.365 153.18C205.321 153.18 206.425 152.304 206.425 150.684C206.425 149.508 205.837 148.836 204.829 148.224L203.437 147.348C202.957 147.06 202.801 146.892 202.801 146.64C202.801 146.352 202.981 146.148 203.569 146.148C204.121 146.148 204.697 146.316 205.465 146.676L206.245 145.032C205.249 144.6 204.325 144.42 203.521 144.42Z" fill="#441105"/>
<path fill-rule="evenodd" clip-rule="evenodd" d="M211.195 135L45.1953 135L45.1953 132.5L211.195 132.5L211.195 135Z" fill="#441105"/>
<path fill-rule="evenodd" clip-rule="evenodd" d="M215.195 92H42.1953C39.4339 92 37.1953 94.2386 37.1953 97V160C37.1953 162.761 39.4339 165 42.1953 165H215.195C217.957 165 220.195 162.761 220.195 160V97C220.195 94.2386 217.957 92 215.195 92ZM42.1953 87C36.6725 87 32.1953 91.4772 32.1953 97V160C32.1953 165.523 36.6725 170 42.1953 170H215.195C220.718 170 225.195 165.523 225.195 160V97C225.195 91.4772 220.718 87 215.195 87H42.1953Z" fill="#441105"/>
</svg>
